<?xml version="1.0" encoding="utf-8"?>
<!-- Generator: Adobe Illustrator 19.0.0, SVG Export Plug-In . SVG Version: 6.00 Build 0)  -->
<svg version="1.1" id="Layer_1" xmlns="http://www.w3.org/2000/svg" xmlns:xlink="http://www.w3.org/1999/xlink" x="0px" y="0px"
	 viewBox="-201 293 208 208" style="enable-background:new -201 293 208 208;" xml:space="preserve">
<style type="text/css">
	.st0{fill:#808080;}
</style>
<g id="surface1">
	<path class="st0" d="M-40.3,295c-4.8,0-9.4,1.7-13,5.3l-8,8.3l52.8,53l8-8.3c7.2-7.2,7.3-18.9,0-26.3L-27,300.5
		C-30.7,296.8-35.5,295-40.3,295z M-70.3,315.8l-12.5,12l55,55L-15,371L-70.3,315.8z M-90.8,336.5l-86.5,85.8c-2,1-3.4,2.8-4,5
		l-18.5,62.8c-0.8,2.8-0.1,5.8,1.9,7.8s5.1,2.8,7.8,1.9l62.8-18.5c2.9-0.4,5.3-2.5,6.3-5.3l85.3-84.5l-11.8-11.8l-87.5,87.8
		l-35.3,10.3l-7.5-7.5l10.8-36.8l86.8-86.5L-90.8,336.5z M-71.8,355.8l-87.8,88l12.8,2.8l1.8,11.8l88-87.8L-71.8,355.8z"/>
</g>
</svg>
