<?xml version="1.0" encoding="utf-8"?>
<!-- Generator: Adobe Illustrator 19.0.0, SVG Export Plug-In . SVG Version: 6.00 Build 0)  -->
<svg version="1.1" id="Layer_1" xmlns="http://www.w3.org/2000/svg" xmlns:xlink="http://www.w3.org/1999/xlink" x="0px" y="0px"
	 viewBox="-201 293 208 208" style="enable-background:new -201 293 208 208;" xml:space="preserve">
<style type="text/css">
	.st0{fill:#FFC000;}
	.st1{fill:#FFFFFF;}
</style>
<circle class="st0" cx="-99" cy="402" r="86"/>
<g id="surface1">
	<path class="st1" d="M-70.2,352.1c-2.4,0-4.6,0.9-6.4,2.6l-3.9,4.1l25.9,25.9l3.9-4.1c3.5-3.5,3.6-9.3,0-12.9l-13-13
		C-65.5,353-67.9,352.1-70.2,352.1z M-84.9,362.3l-6.1,5.9l27,27l6.3-5.8L-84.9,362.3z M-95,372.4l-42.4,42c-1,0.5-1.7,1.4-2,2.5
		l-9.1,30.8c-0.4,1.4-0.1,2.8,0.9,3.8s2.5,1.4,3.8,0.9l30.8-9.1c1.4-0.2,2.6-1.2,3.1-2.6l41.8-41.4l-5.7-5.8l-42.9,43l-17.3,5
		l-3.7-3.7l5.3-18l42.5-42.4L-95,372.4z M-85.7,381.9l-43,43.1l6.3,1.4l0.9,5.8l43.1-43L-85.7,381.9z"/>
</g>
</svg>
