<?xml version="1.0" encoding="utf-8"?>
<!-- Generator: Adobe Illustrator 19.0.0, SVG Export Plug-In . SVG Version: 6.00 Build 0)  -->
<svg version="1.1" id="Layer_1" xmlns="http://www.w3.org/2000/svg" xmlns:xlink="http://www.w3.org/1999/xlink" x="0px" y="0px"
	 viewBox="-293 385 24 24" style="enable-background:new -293 385 24 24;" xml:space="preserve">
<style type="text/css">
	.st0{fill:#808080;}
</style>
<path class="st0" d="M-281,394c5.3,0,10-2,10-4.5s-4.7-4.5-10-4.5c-5.3,0-10,2-10,4.5S-286.3,394-281,394z M-280.8,390
	c-0.6-0.2-2.4-0.3-2.4-1.3c0-0.6,0.7-1.1,1.9-1.2V387h0.6v0.4c0.5,0,1,0.1,1.6,0.2l-0.2,0.7c-0.4-0.1-0.9-0.2-1.4-0.2l-0.1,0
	c-1,0-1,0.6-0.4,0.8c1.1,0.3,2.5,0.6,2.5,1.5c0,0.7-0.9,1.1-1.9,1.2v0.4h-0.6v-0.4c-0.7,0-1.4-0.1-1.9-0.3l0.3-0.7
	c0.5,0.1,1.1,0.3,1.7,0.3c0.1,0,0.3,0,0.4,0C-280.1,390.7-280,390.2-280.8,390z M-281,406c3.8,0,7.7-1,10-2.8v1.3
	c0,2.5-4.7,4.5-10,4.5c-5.3,0-10-2-10-4.5v-1.3C-288.7,405-284.8,406-281,406z M-281,396c3.8,0,7.7-1,10-2.8v1.3
	c0,2.5-4.7,4.5-10,4.5c-5.3,0-10-2-10-4.5v-1.3C-288.7,395-284.8,396-281,396z M-281,401c3.8,0,7.7-1,10-2.8v1.3
	c0,2.5-4.7,4.5-10,4.5c-5.3,0-10-2-10-4.5v-1.3C-288.7,400-284.8,401-281,401z"/>
</svg>
