<?xml version="1.0" encoding="utf-8"?>
<!-- Generator: Adobe Illustrator 19.0.0, SVG Export Plug-In . SVG Version: 6.00 Build 0)  -->
<svg version="1.1" id="Layer_1" xmlns="http://www.w3.org/2000/svg" xmlns:xlink="http://www.w3.org/1999/xlink" x="0px" y="0px"
	 viewBox="150 -150 500 500" style="enable-background:new 150 -150 500 500;" xml:space="preserve">
<style type="text/css">
	.st0{fill:#FFC000;}
</style>
<path class="st0" d="M621.6,62.2l-60.1-9.8c-3.4-11.6-8-22.6-13.7-33.1l35.1-50c2.8-4,2.3-9.4-1.1-12.8l-38.9-38.9
	c-3.5-3.5-8.9-3.9-12.9-1L480.7-48c-10.5-5.8-21.6-10.4-33.3-13.9l-10.5-59.8c-0.8-4.8-5-8.3-9.9-8.3h-55c-4.9,0-9.1,3.5-9.9,8.4
	l-9.7,59.6c-11.7,3.4-22.8,8-33.4,13.7L270-83.5c-4-2.8-9.4-2.4-12.9,1.1l-38.9,38.9c-3.4,3.4-3.9,8.8-1.1,12.8l34.6,49.5
	c-5.8,10.6-10.5,21.8-14,33.6l-59.3,9.9c-4.8,0.8-8.3,5-8.3,9.9v55c0,4.9,3.5,9,8.2,9.9l59.3,10.5c3.5,11.8,8.1,23,13.9,33.6l-35,49
	c-2.8,4-2.4,9.4,1.1,12.9l38.9,38.9c3.4,3.4,8.8,3.9,12.8,1.1l49.6-34.7c10.5,5.8,21.7,10.4,33.5,13.8l9.9,59.6
	c0.8,4.8,5,8.4,9.9,8.4h55c4.9,0,9-3.5,9.9-8.3l10.6-59.9c11.7-3.5,22.8-8.2,33.3-14l49.9,35c4,2.8,9.4,2.3,12.8-1.1l38.9-38.9
	c3.5-3.5,3.9-8.9,1-12.9l-35.6-49.4c5.7-10.4,10.3-21.5,13.7-33.1l60.2-10.5c4.8-0.8,8.3-5,8.3-9.9v-55
	C630,67.2,626.4,63,621.6,62.2z M400,180c-44.1,0-80-35.9-80-80s35.9-80,80-80s80,35.9,80,80S444.1,180,400,180z"/>
</svg>
