<?xml version="1.0" encoding="utf-8"?>
<!-- Generator: Adobe Illustrator 19.0.0, SVG Export Plug-In . SVG Version: 6.00 Build 0)  -->
<svg version="1.1" id="Layer_1" xmlns="http://www.w3.org/2000/svg" xmlns:xlink="http://www.w3.org/1999/xlink" x="0px" y="0px"
	 viewBox="202 220.9 1000 400" style="enable-background:new 202 220.9 1000 400;" xml:space="preserve">
<style type="text/css">
	.st0{fill:#873100;}
	.st1{fill:#00C03C;}
	.st2{fill:#561A00;}
	.st3{clip-path:url(#SVGID_2_);}
	.st4{clip-path:url(#SVGID_4_);fill:#FFC000;}
	.st5{clip-path:url(#SVGID_6_);fill:#FFC000;}
	.st6{clip-path:url(#SVGID_8_);fill:#E36C00;}
	.st7{clip-path:url(#SVGID_10_);fill:#E36C00;}
	.st8{clip-path:url(#SVGID_12_);fill:#E36C00;}
	.st9{clip-path:url(#SVGID_14_);fill:#E36C00;}
</style>
<path id="XMLID_49_" class="st0" d="M1023,522.6v-27.7c0-9.2-6.1-16.7-13.6-16.7l0,0c-7.5,0-13.6-7.5-13.6-16.7v-27.2
	c0-9.2-6.1-16.7-13.6-16.7h-2.7c-7.5,0-13.6-7.5-13.6-16.7v-27.8c0-9.2-6.1-16.7-13.6-16.7h-37.6c-7.5,0-13.6-7.5-13.6-16.7v-27.6
	c0-9.2-6.1-16.7-13.6-16.7h-63c-7.5,0-13.6-7.5-13.6-16.7V251c0-9.2-6.1-16.7-13.6-16.7H661.7c-7.5,0-13.6,7.5-13.6,16.7v27.7
	c0,9.2-6.1,16.7-13.6,16.7h-18.2c-7.5,0-13.6,7.5-13.6,16.7v27.6c0,9.2-6.1,16.7-13.6,16.7h-3.8c-7.5,0-13.6,7.5-13.6,16.7v27.7
	c0,9.2-6.1,16.7-13.6,16.7h-18.6c-7.5,0-13.6,7.5-13.6,16.7v27.2c0,9.2-6.1,16.7-13.6,16.7H459c-7.5,0-13.6,7.5-13.6,16.7v27.7
	c0,9.2-6.1,16.7-13.6,16.7h-24.6c-7.5,0-13.6,7.5-13.6,16.7v28.2c0,9.2,6.1,16.7,13.6,16.7H1097c7.5,0,13.6-7.5,13.6-16.7v-28
	c0-9.2-6.1-16.7-13.6-16.7h-60.1C1029.1,539.4,1023,531.9,1023,522.6z"/>
<path id="XMLID_51_" class="st1" d="M586.3,475.6V463c0-7-5.7-12.7-12.7-12.7H412.2c-7,0-12.7,5.7-12.7,12.7v12.6
	c0,7,5.7,12.7,12.7,12.7l0,0c7,0,12.7,5.7,12.7,12.7v11.7c0,7-5.7,12.7-12.7,12.7h-29.1c-7,0-12.7,5.7-12.7,12.7v12.2
	c0,7-5.7,12.7-12.7,12.7h-81.5c-7,0-12.7,5.7-12.7,12.7v12.6c0,7,5.7,12.7,12.7,12.7H514c7,0,12.7-5.7,12.7-12.7v-12.2
	c0-7,5.7-12.7,12.7-12.7h21.1c7,0,12.7-5.7,12.7-12.7v-12.6c0-7-5.7-12.7-12.7-12.7h-8.7c-7,0-12.7-5.7-12.7-12.7V501
	c0-7,5.7-12.7,12.7-12.7h21.8C580.6,488.3,586.3,482.6,586.3,475.6z"/>
<g id="XMLID_10_">
	<g>
		<circle id="XMLID_2_" class="st2" cx="722.6" cy="427.3" r="101.1"/>
	</g>
	<g>
		<g>
			<defs>
				<circle id="SVGID_1_" cx="722.6" cy="427.3" r="101.1"/>
			</defs>
			<clipPath id="SVGID_2_">
				<use xlink:href="#SVGID_1_"  style="overflow:visible;"/>
			</clipPath>
			<g id="XMLID_1_" class="st3">
				<g>
					<defs>
						<path id="SVGID_3_" d="M720.9,433.9c0.4-4.7-1.5-8.9,0.4-17.5c1.7-7.7,5.2-13.5,8.1-17.4c-2.3-2-6.1-5-11.3-7.4
							c-17.8-8.3-31-0.6-41.4-10c-0.8-0.7-6.7-6.3-5.6-12c1.2-5.7,9.4-10.2,20.5-10.4c18.4-0.4,32,8.1,33.5,9.2
							c9,7,13,15.8,14.8,20.3c1.3-0.8,2.5-1.6,3.8-2.4c-2.1-4.7-7.5-15.4-19.2-22.7c-9.3-5.9-18.3-7.1-22.1-7.6
							c-5.4-0.7-10.1-0.4-13.4,0c-0.1-1.6-0.2-6.1,2.9-9.4c1.7-1.8,4.1-2.9,7.8-3.3c25.3-2.3,38.8,11.4,38.8,11.4
							c10.5,10.8,11.7,24.3,11.8,28.2c1.5-0.4,3.7-0.9,6.3-1.1c8.9-0.7,15.7,2.3,19.3,4c10.5,4.8,16.9,14,29.7,32.3
							c3.2,4.6,5.3,7.9,4.7,12c-1.1,8.1-11.8,12.9-12.8,13.3c-3.3,1.4-6.1,1.8-7.6,2c-5.7,0.7-15.8,1.8-30.8,2.1
							c2.7,8.5,6,21.8,5.6,38c-0.7,31.7-14.8,54.1-5,63.1c5.3,4.8,12.3,1,20.3,8.2c5.4,4.8,7.5,11.2,8.5,15.7c-10.7,0-21.4,0-32,0
							c-0.5-3.1-3.2-15.7-14.8-24.4c-8.1-6.1-16.6-7.2-20.3-7.5c0.5-0.5,7.8-7.6,5.7-17.7c-1.6-8.3-8.5-12.3-9.5-12.9
							c-1.7,0.3-3.4,0.7-5.1,1c2.1,1.1,6.6,3.9,8.5,9.1c2.8,7.9-1.4,18.1-11.1,24.1c5.7-0.1,13.3,0.7,21.3,4.3
							c4.5,2.1,9.8,4.4,13.7,10.2c3.7,5.3,4.4,10.8,4.6,13.7H534.1c-11.7-3.8-15.3-9.8-16.5-12.7c-7.1-16.2,12.4-43.4,33.8-48.6
							c22.4-5.2,51.3,12.6,62.6,46.2c0.4-8.5,1.9-22,8.5-36.6c12.9-29,37.7-45.6,47.1-51.7C696,451.8,719.8,448.4,720.9,433.9z"/>
					</defs>
					<clipPath id="SVGID_4_">
						<use xlink:href="#SVGID_3_"  style="overflow:visible;"/>
					</clipPath>
					<path id="XMLID_44_" class="st4" d="M572.4,341.5v233.5h-48.7c-10.4,0-20.8,0-31.2,0c-0.1,0-0.9,0-1.4-1
						c-0.4-0.6-0.6-1.5-0.6-2.5v-0.3c0-1.9,0.9-3.5,2-3.5h5.7c1.1,0,2-1.6,2-3.5v-0.2c0-1.9-0.9-3.5-2-3.5h-24.9c-1.1,0-2-1.6-2-3.5
						v-0.3c0-1.9,0.9-3.5,2-3.5h33.9c1.1,0,2-1.6,2-3.5v-0.3c0-1.9-0.9-3.5-2-3.5H491c-1.1,0-2-1.6-2-3.5v-0.3c0-1.9,0.9-3.5,2-3.5
						h24.6c1.1,0,2-1.6,2-3.5v-0.3c0-1.9-0.9-3.5-2-3.5H477c-1.1,0-2-1.6-2-3.5V527c0-1.9,0.9-3.5,2-3.5h21.3c1.1,0,2-1.6,2-3.5l0,0
						c0-1.9,0.9-3.5,2-3.5h10.2c1.1,0,2-1.6,2-3.5v-0.1c0-1.9-0.9-3.5-2-3.5h-24.9c-1.1,0-2-1.6-2-3.5v-0.2c0-1.9-0.9-3.5-2-3.5
						h-10.4c-1.1,0-2-1.6-2-3.5v-0.4c0-1.9,0.9-3.5,2-3.5h35.8c1.1,0,2-1.5,2-3.5v-0.4c0-1.9-0.9-3.5-2-3.5h-18c-1.1,0-2-1.5-2-3.5
						v-0.4c0-1.9,0.9-3.5,2-3.5h12.8c1.1,0,2-1.5,2-3.5V476c0-1.9-0.9-3.5-2-3.5H477c-1.1,0-2-1.5-2-3.5v-0.4c0-1.9,0.9-3.5,2-3.5
						h41.4c1.1,0,2-1.5,2-3.5l0,0c0-1.9-0.9-3.5-2-3.5h-26c-1.1,0-2-1.5-2-3.5v-0.4c0-1.9,0.9-3.5,2-3.5h14.8c1.1,0,2-1.5,2-3.5
						v-0.2c0-1.9-0.9-3.5-2-3.5h-34c-1.1,0-2-1.5-2-3.5v-0.4c0-1.9,0.9-3.5,2-3.5h34c1.1,0,2-1.5,2-3.5v-0.4c0-1.9-0.9-3.5-2-3.5
						H491c-1.1,0-2-1.5-2-3.5V425c0-1.9,0.9-3.5,2-3.5h24.7c1.1,0,2-1.5,2-3.5v-0.4c0-1.9-0.9-3.5-2-3.5H477c-1.1,0-2-1.6-2-3.5
						v-0.3c0-1.9,0.9-3.5,2-3.5h21.3c1.1,0,2-1.6,2-3.5l0,0c0-1.9,0.9-3.5,2-3.5h10.2c1.1,0,2-1.6,2-3.5v-0.1c0-1.9-0.9-3.5-2-3.5
						h-24.9c-0.7-1.3-1.4-2.5-2-3.8c0-1.9-0.9-3.5-2-3.5h-10.4c-1.1,0-2-1.6-2-3.5v-0.3c0-1.9,0.9-3.5,2-3.5h35.7c1.1,0,2-1.6,2-3.5
						v-0.3c0-1.9-0.9-3.5-2-3.5h-18c-1.1,0-2-1.6-2-3.5v-0.3c0-1.9,0.9-3.5,2-3.5h12.7c1.1,0,2-1.6,2-3.5v-0.3c0-1.9-0.9-3.5-2-3.5
						H477c-1.1,0-2-1.6-2-3.5V352c0-1.9,0.9-3.5,2-3.5h21.3c1.1,0,2-1.6,2-3.5l0,0c0-1.9,0.9-3.5,2-3.5c7.4,0,14.8,0,22.2,0
						L572.4,341.5z"/>
				</g>
				<g>
					<defs>
						<path id="SVGID_5_" d="M720.9,433.9c0.4-4.7-1.5-8.9,0.4-17.5c1.7-7.7,5.2-13.5,8.1-17.4c-2.3-2-6.1-5-11.3-7.4
							c-17.8-8.3-31-0.6-41.4-10c-0.8-0.7-6.7-6.3-5.6-12c1.2-5.7,9.4-10.2,20.5-10.4c18.4-0.4,32,8.1,33.5,9.2
							c9,7,13,15.8,14.8,20.3c1.3-0.8,2.5-1.6,3.8-2.4c-2.1-4.7-7.5-15.4-19.2-22.7c-9.3-5.9-18.3-7.1-22.1-7.6
							c-5.4-0.7-10.1-0.4-13.4,0c-0.1-1.6-0.2-6.1,2.9-9.4c1.7-1.8,4.1-2.9,7.8-3.3c25.3-2.3,38.8,11.4,38.8,11.4
							c10.5,10.8,11.7,24.3,11.8,28.2c1.5-0.4,3.7-0.9,6.3-1.1c8.9-0.7,15.7,2.3,19.3,4c10.5,4.8,16.9,14,29.7,32.3
							c3.2,4.6,5.3,7.9,4.7,12c-1.1,8.1-11.8,12.9-12.8,13.3c-3.3,1.4-6.1,1.8-7.6,2c-5.7,0.7-15.8,1.8-30.8,2.1
							c2.7,8.5,6,21.8,5.6,38c-0.7,31.7-14.8,54.1-5,63.1c5.3,4.8,12.3,1,20.3,8.2c5.4,4.8,7.5,11.2,8.5,15.7c-10.7,0-21.4,0-32,0
							c-0.5-3.1-3.2-15.7-14.8-24.4c-8.1-6.1-16.6-7.2-20.3-7.5c0.5-0.5,7.8-7.6,5.7-17.7c-1.6-8.3-8.5-12.3-9.5-12.9
							c-1.7,0.3-3.4,0.7-5.1,1c2.1,1.1,6.6,3.9,8.5,9.1c2.8,7.9-1.4,18.1-11.1,24.1c5.7-0.1,13.3,0.7,21.3,4.3
							c4.5,2.1,9.8,4.4,13.7,10.2c3.7,5.3,4.4,10.8,4.6,13.7H534.1c-11.7-3.8-15.3-9.8-16.5-12.7c-7.1-16.2,12.4-43.4,33.8-48.6
							c22.4-5.2,51.3,12.6,62.6,46.2c0.4-8.5,1.9-22,8.5-36.6c12.9-29,37.7-45.6,47.1-51.7C696,451.8,719.8,448.4,720.9,433.9z"/>
					</defs>
					<clipPath id="SVGID_6_">
						<use xlink:href="#SVGID_5_"  style="overflow:visible;"/>
					</clipPath>
					<path id="XMLID_43_" class="st5" d="M621.1,341.5v233.5h-48.7c-10.4,0-20.8,0-31.2,0c-0.1,0-0.9,0-1.4-1
						c-0.4-0.6-0.6-1.5-0.6-2.5v-0.3c0-1.9,0.9-3.5,2-3.5h5.7c1.1,0,2-1.6,2-3.5v-0.2c0-1.9-0.9-3.5-2-3.5h-24.9c-1.1,0-2-1.6-2-3.5
						v-0.3c0-1.9,0.9-3.5,2-3.5h33.9c1.1,0,2-1.6,2-3.5v-0.3c0-1.9-0.9-3.5-2-3.5h-16.1c-1.1,0-2-1.6-2-3.5v-0.3
						c0-1.9,0.9-3.5,2-3.5h24.6c1.1,0,2-1.6,2-3.5v-0.3c0-1.9-0.9-3.5-2-3.5h-38.6c-1.1,0-2-1.6-2-3.5V527c0-1.9,0.9-3.5,2-3.5H547
						c1.1,0,2-1.6,2-3.5l0,0c0-1.9,0.9-3.5,2-3.5h10.2c1.1,0,2-1.6,2-3.5v-0.1c0-1.9-0.9-3.5-2-3.5h-24.9c-1.1,0-2-1.6-2-3.5v-0.2
						c0-1.9-0.9-3.5-2-3.5h-10.4c-1.1,0-2-1.6-2-3.5v-0.4c0-1.9,0.9-3.5,2-3.5h35.8c1.1,0,2-1.5,2-3.5v-0.4c0-1.9-0.9-3.5-2-3.5h-18
						c-1.1,0-2-1.5-2-3.5v-0.4c0-1.9,0.9-3.5,2-3.5h12.7c1.1,0,2-1.5,2-3.5V476c0-1.9-0.9-3.5-2-3.5h-26.6c-1.1,0-2-1.5-2-3.5v-0.4
						c0-1.9,0.9-3.5,2-3.5h41.4c1.1,0,2-1.5,2-3.5l0,0c0-1.9-0.9-3.5-2-3.5h-26c-1.1,0-2-1.5-2-3.5v-0.4c0-1.9,0.9-3.5,2-3.5h14.8
						c1.1,0,2-1.5,2-3.5v-0.2c0-1.9-0.9-3.5-2-3.5h-34c-1.1,0-2-1.5-2-3.5v-0.4c0-1.9,0.9-3.5,2-3.5h34c1.1,0,2-1.5,2-3.5v-0.4
						c0-1.9-0.9-3.5-2-3.5h-16.2c-1.1,0-2-1.5-2-3.5V425c0-1.9,0.9-3.5,2-3.5h24.7c1.1,0,2-1.5,2-3.5v-0.4c0-1.9-0.9-3.5-2-3.5
						h-38.6c-1.1,0-2-1.6-2-3.5v-0.3c0-1.9,0.9-3.5,2-3.5H547c1.1,0,2-1.6,2-3.5l0,0c0-1.9,0.9-3.5,2-3.5h10.2c1.1,0,2-1.6,2-3.5
						v-0.1c0-1.9-0.9-3.5-2-3.5h-24.9c-0.7-1.3-1.4-2.5-2-3.8c0-1.9-0.9-3.5-2-3.5h-10.4c-1.1,0-2-1.6-2-3.5v-0.3
						c0-1.9,0.9-3.5,2-3.5h35.7c1.1,0,2-1.6,2-3.5v-0.3c0-1.9-0.9-3.5-2-3.5h-18c-1.1,0-2-1.6-2-3.5v-0.3c0-1.9,0.9-3.5,2-3.5h12.7
						c1.1,0,2-1.6,2-3.5v-0.3c0-1.9-0.9-3.5-2-3.5h-26.6c-1.1,0-2-1.6-2-3.5V352c0-1.9,0.9-3.5,2-3.5H547c1.1,0,2-1.6,2-3.5l0,0
						c0-1.9,0.9-3.5,2-3.5c7.4,0,14.8,0,22.2,0L621.1,341.5z"/>
				</g>
				<g>
					<defs>
						<path id="SVGID_7_" d="M720.9,433.9c0.4-4.7-1.5-8.9,0.4-17.5c1.7-7.7,5.2-13.5,8.1-17.4c-2.3-2-6.1-5-11.3-7.4
							c-17.8-8.3-31-0.6-41.4-10c-0.8-0.7-6.7-6.3-5.6-12c1.2-5.7,9.4-10.2,20.5-10.4c18.4-0.4,32,8.1,33.5,9.2
							c9,7,13,15.8,14.8,20.3c1.3-0.8,2.5-1.6,3.8-2.4c-2.1-4.7-7.5-15.4-19.2-22.7c-9.3-5.9-18.3-7.1-22.1-7.6
							c-5.4-0.7-10.1-0.4-13.4,0c-0.1-1.6-0.2-6.1,2.9-9.4c1.7-1.8,4.1-2.9,7.8-3.3c25.3-2.3,38.8,11.4,38.8,11.4
							c10.5,10.8,11.7,24.3,11.8,28.2c1.5-0.4,3.7-0.9,6.3-1.1c8.9-0.7,15.7,2.3,19.3,4c10.5,4.8,16.9,14,29.7,32.3
							c3.2,4.6,5.3,7.9,4.7,12c-1.1,8.1-11.8,12.9-12.8,13.3c-3.3,1.4-6.1,1.8-7.6,2c-5.7,0.7-15.8,1.8-30.8,2.1
							c2.7,8.5,6,21.8,5.6,38c-0.7,31.7-14.8,54.1-5,63.1c5.3,4.8,12.3,1,20.3,8.2c5.4,4.8,7.5,11.2,8.5,15.7c-10.7,0-21.4,0-32,0
							c-0.5-3.1-3.2-15.7-14.8-24.4c-8.1-6.1-16.6-7.2-20.3-7.5c0.5-0.5,7.8-7.6,5.7-17.7c-1.6-8.3-8.5-12.3-9.5-12.9
							c-1.7,0.3-3.4,0.7-5.1,1c2.1,1.1,6.6,3.9,8.5,9.1c2.8,7.9-1.4,18.1-11.1,24.1c5.7-0.1,13.3,0.7,21.3,4.3
							c4.5,2.1,9.8,4.4,13.7,10.2c3.7,5.3,4.4,10.8,4.6,13.7H534.1c-11.7-3.8-15.3-9.8-16.5-12.7c-7.1-16.2,12.4-43.4,33.8-48.6
							c22.4-5.2,51.3,12.6,62.6,46.2c0.4-8.5,1.9-22,8.5-36.6c12.9-29,37.7-45.6,47.1-51.7C696,451.8,719.8,448.4,720.9,433.9z"/>
					</defs>
					<clipPath id="SVGID_8_">
						<use xlink:href="#SVGID_7_"  style="overflow:visible;"/>
					</clipPath>
					<path id="XMLID_42_" class="st6" d="M672.3,341.5v233.5h-48.7c-10.4,0-20.8,0-31.2,0c-0.1,0-0.9,0-1.4-1
						c-0.4-0.6-0.6-1.5-0.6-2.5v-0.3c0-1.9,0.9-3.5,2-3.5h5.7c1.1,0,2-1.6,2-3.5v-0.2c0-1.9-0.9-3.5-2-3.5h-24.9c-1.1,0-2-1.6-2-3.5
						v-0.3c0-1.9,0.9-3.5,2-3.5h33.9c1.1,0,2-1.6,2-3.5v-0.3c0-1.9-0.9-3.5-2-3.5h-16.1c-1.1,0-2-1.6-2-3.5v-0.3
						c0-1.9,0.9-3.5,2-3.5h24.6c1.1,0,2-1.6,2-3.5v-0.3c0-1.9-0.9-3.5-2-3.5H577c-1.1,0-2-1.6-2-3.5V527c0-1.9,0.9-3.5,2-3.5h21.3
						c1.1,0,2-1.6,2-3.5l0,0c0-1.9,0.9-3.5,2-3.5h10.2c1.1,0,2-1.6,2-3.5v-0.1c0-1.9-0.9-3.5-2-3.5h-24.9c-1.1,0-2-1.6-2-3.5v-0.2
						c0-1.9-0.9-3.5-2-3.5h-10.4c-1.1,0-2-1.6-2-3.5v-0.4c0-1.9,0.9-3.5,2-3.5h35.8c1.1,0,2-1.5,2-3.5v-0.4c0-1.9-0.9-3.5-2-3.5h-18
						c-1.1,0-2-1.5-2-3.5v-0.4c0-1.9,0.9-3.5,2-3.5h12.8c1.1,0,2-1.5,2-3.5V476c0-1.9-0.9-3.5-2-3.5H577c-1.1,0-2-1.5-2-3.5v-0.4
						c0-1.9,0.9-3.5,2-3.5h41.4c1.1,0,2-1.5,2-3.5l0,0c0-1.9-0.9-3.5-2-3.5h-26c-1.1,0-2-1.5-2-3.5v-0.4c0-1.9,0.9-3.5,2-3.5h14.8
						c1.1,0,2-1.5,2-3.5v-0.2c0-1.9-0.9-3.5-2-3.5h-34c-1.1,0-2-1.5-2-3.5v-0.4c0-1.9,0.9-3.5,2-3.5h34c1.1,0,2-1.5,2-3.5v-0.4
						c0-1.9-0.9-3.5-2-3.5h-16.2c-1.1,0-2-1.5-2-3.5V425c0-1.9,0.9-3.5,2-3.5h24.7c1.1,0,2-1.5,2-3.5v-0.4c0-1.9-0.9-3.5-2-3.5H577
						c-1.1,0-2-1.6-2-3.5v-0.3c0-1.9,0.9-3.5,2-3.5h21.3c1.1,0,2-1.6,2-3.5l0,0c0-1.9,0.9-3.5,2-3.5h10.2c1.1,0,2-1.6,2-3.5v-0.1
						c0-1.9-0.9-3.5-2-3.5h-24.9c-0.7-1.3-1.4-2.5-2-3.8c0-1.9-0.9-3.5-2-3.5h-10.4c-1.1,0-2-1.6-2-3.5v-0.3c0-1.9,0.9-3.5,2-3.5
						h35.7c1.1,0,2-1.6,2-3.5v-0.3c0-1.9-0.9-3.5-2-3.5h-18c-1.1,0-2-1.6-2-3.5v-0.3c0-1.9,0.9-3.5,2-3.5h12.7c1.1,0,2-1.6,2-3.5
						v-0.3c0-1.9-0.9-3.5-2-3.5H577c-1.1,0-2-1.6-2-3.5V352c0-1.9,0.9-3.5,2-3.5h21.3c1.1,0,2-1.6,2-3.5l0,0c0-1.9,0.9-3.5,2-3.5
						c7.4,0,14.8,0,22.2,0L672.3,341.5z"/>
				</g>
				<g>
					<defs>
						<path id="SVGID_9_" d="M720.9,433.9c0.4-4.7-1.5-8.9,0.4-17.5c1.7-7.7,5.2-13.5,8.1-17.4c-2.3-2-6.1-5-11.3-7.4
							c-17.8-8.3-31-0.6-41.4-10c-0.8-0.7-6.7-6.3-5.6-12c1.2-5.7,9.4-10.2,20.5-10.4c18.4-0.4,32,8.1,33.5,9.2
							c9,7,13,15.8,14.8,20.3c1.3-0.8,2.5-1.6,3.8-2.4c-2.1-4.7-7.5-15.4-19.2-22.7c-9.3-5.9-18.3-7.1-22.1-7.6
							c-5.4-0.7-10.1-0.4-13.4,0c-0.1-1.6-0.2-6.1,2.9-9.4c1.7-1.8,4.1-2.9,7.8-3.3c25.3-2.3,38.8,11.4,38.8,11.4
							c10.5,10.8,11.7,24.3,11.8,28.2c1.5-0.4,3.7-0.9,6.3-1.1c8.9-0.7,15.7,2.3,19.3,4c10.5,4.8,16.9,14,29.7,32.3
							c3.2,4.6,5.3,7.9,4.7,12c-1.1,8.1-11.8,12.9-12.8,13.3c-3.3,1.4-6.1,1.8-7.6,2c-5.7,0.7-15.8,1.8-30.8,2.1
							c2.7,8.5,6,21.8,5.6,38c-0.7,31.7-14.8,54.1-5,63.1c5.3,4.8,12.3,1,20.3,8.2c5.4,4.8,7.5,11.2,8.5,15.7c-10.7,0-21.4,0-32,0
							c-0.5-3.1-3.2-15.7-14.8-24.4c-8.1-6.1-16.6-7.2-20.3-7.5c0.5-0.5,7.8-7.6,5.7-17.7c-1.6-8.3-8.5-12.3-9.5-12.9
							c-1.7,0.3-3.4,0.7-5.1,1c2.1,1.1,6.6,3.9,8.5,9.1c2.8,7.9-1.4,18.1-11.1,24.1c5.7-0.1,13.3,0.7,21.3,4.3
							c4.5,2.1,9.8,4.4,13.7,10.2c3.7,5.3,4.4,10.8,4.6,13.7H534.1c-11.7-3.8-15.3-9.8-16.5-12.7c-7.1-16.2,12.4-43.4,33.8-48.6
							c22.4-5.2,51.3,12.6,62.6,46.2c0.4-8.5,1.9-22,8.5-36.6c12.9-29,37.7-45.6,47.1-51.7C696,451.8,719.8,448.4,720.9,433.9z"/>
					</defs>
					<clipPath id="SVGID_10_">
						<use xlink:href="#SVGID_9_"  style="overflow:visible;"/>
					</clipPath>
					<path id="XMLID_41_" class="st7" d="M721,341.5v233.5h-48.7c-10.4,0-20.8,0-31.2,0c-0.1,0-0.9,0-1.4-1
						c-0.4-0.6-0.6-1.5-0.6-2.5v-0.3c0-1.9,0.9-3.5,2-3.5h5.7c1.1,0,2-1.6,2-3.5v-0.2c0-1.9-0.9-3.5-2-3.5h-24.9c-1.1,0-2-1.6-2-3.5
						v-0.3c0-1.9,0.9-3.5,2-3.5h33.9c1.1,0,2-1.6,2-3.5v-0.3c0-1.9-0.9-3.5-2-3.5h-16.1c-1.1,0-2-1.6-2-3.5v-0.3
						c0-1.9,0.9-3.5,2-3.5h24.6c1.1,0,2-1.6,2-3.5v-0.3c0-1.9-0.9-3.5-2-3.5h-38.6c-1.1,0-2-1.6-2-3.5V527c0-1.9,0.9-3.5,2-3.5H647
						c1.1,0,2-1.6,2-3.5l0,0c0-1.9,0.9-3.5,2-3.5h10.2c1.1,0,2-1.6,2-3.5v-0.1c0-1.9-0.9-3.5-2-3.5h-24.9c-1.1,0-2-1.6-2-3.5v-0.2
						c0-1.9-0.9-3.5-2-3.5h-10.4c-1.1,0-2-1.6-2-3.5v-0.4c0-1.9,0.9-3.5,2-3.5h35.8c1.1,0,2-1.5,2-3.5v-0.4c0-1.9-0.9-3.5-2-3.5h-18
						c-1.1,0-2-1.5-2-3.5v-0.4c0-1.9,0.9-3.5,2-3.5h12.7c1.1,0,2-1.5,2-3.5V476c0-1.9-0.9-3.5-2-3.5h-26.6c-1.1,0-2-1.5-2-3.5v-0.4
						c0-1.9,0.9-3.5,2-3.5h41.4c1.1,0,2-1.5,2-3.5l0,0c0-1.9-0.9-3.5-2-3.5h-26c-1.1,0-2-1.5-2-3.5v-0.4c0-1.9,0.9-3.5,2-3.5h14.8
						c1.1,0,2-1.5,2-3.5v-0.2c0-1.9-0.9-3.5-2-3.5h-34c-1.1,0-2-1.5-2-3.5v-0.4c0-1.9,0.9-3.5,2-3.5h34c1.1,0,2-1.5,2-3.5v-0.4
						c0-1.9-0.9-3.5-2-3.5h-16.2c-1.1,0-2-1.5-2-3.5V425c0-1.9,0.9-3.5,2-3.5h24.7c1.1,0,2-1.5,2-3.5v-0.4c0-1.9-0.9-3.5-2-3.5
						h-38.6c-1.1,0-2-1.6-2-3.5v-0.3c0-1.9,0.9-3.5,2-3.5h21.3c1.1,0,2-1.6,2-3.5l0,0c0-1.9,0.9-3.5,2-3.5h10.2c1.1,0,2-1.6,2-3.5
						v-0.1c0-1.9-0.9-3.5-2-3.5h-24.9c-0.7-1.3-1.4-2.5-2-3.8c0-1.9-0.9-3.5-2-3.5h-10.4c-1.1,0-2-1.6-2-3.5v-0.3
						c0-1.9,0.9-3.5,2-3.5h35.7c1.1,0,2-1.6,2-3.5v-0.3c0-1.9-0.9-3.5-2-3.5h-18c-1.1,0-2-1.6-2-3.5v-0.3c0-1.9,0.9-3.5,2-3.5h12.7
						c1.1,0,2-1.6,2-3.5v-0.3c0-1.9-0.9-3.5-2-3.5h-26.6c-1.1,0-2-1.6-2-3.5V352c0-1.9,0.9-3.5,2-3.5h21.3c1.1,0,2-1.6,2-3.5l0,0
						c0-1.9,0.9-3.5,2-3.5c7.4,0,14.8,0,22.2,0L721,341.5L721,341.5z"/>
				</g>
				<g>
					<defs>
						<path id="SVGID_11_" d="M720.9,433.9c0.4-4.7-1.5-8.9,0.4-17.5c1.7-7.7,5.2-13.5,8.1-17.4c-2.3-2-6.1-5-11.3-7.4
							c-17.8-8.3-31-0.6-41.4-10c-0.8-0.7-6.7-6.3-5.6-12c1.2-5.7,9.4-10.2,20.5-10.4c18.4-0.4,32,8.1,33.5,9.2
							c9,7,13,15.8,14.8,20.3c1.3-0.8,2.5-1.6,3.8-2.4c-2.1-4.7-7.5-15.4-19.2-22.7c-9.3-5.9-18.3-7.1-22.1-7.6
							c-5.4-0.7-10.1-0.4-13.4,0c-0.1-1.6-0.2-6.1,2.9-9.4c1.7-1.8,4.1-2.9,7.8-3.3c25.3-2.3,38.8,11.4,38.8,11.4
							c10.5,10.8,11.7,24.3,11.8,28.2c1.5-0.4,3.7-0.9,6.3-1.1c8.9-0.7,15.7,2.3,19.3,4c10.5,4.8,16.9,14,29.7,32.3
							c3.2,4.6,5.3,7.9,4.7,12c-1.1,8.1-11.8,12.9-12.8,13.3c-3.3,1.4-6.1,1.8-7.6,2c-5.7,0.7-15.8,1.8-30.8,2.1
							c2.7,8.5,6,21.8,5.6,38c-0.7,31.7-14.8,54.1-5,63.1c5.3,4.8,12.3,1,20.3,8.2c5.4,4.8,7.5,11.2,8.5,15.7c-10.7,0-21.4,0-32,0
							c-0.5-3.1-3.2-15.7-14.8-24.4c-8.1-6.1-16.6-7.2-20.3-7.5c0.5-0.5,7.8-7.6,5.7-17.7c-1.6-8.3-8.5-12.3-9.5-12.9
							c-1.7,0.3-3.4,0.7-5.1,1c2.1,1.1,6.6,3.9,8.5,9.1c2.8,7.9-1.4,18.1-11.1,24.1c5.7-0.1,13.3,0.7,21.3,4.3
							c4.5,2.1,9.8,4.4,13.7,10.2c3.7,5.3,4.4,10.8,4.6,13.7H534.1c-11.7-3.8-15.3-9.8-16.5-12.7c-7.1-16.2,12.4-43.4,33.8-48.6
							c22.4-5.2,51.3,12.6,62.6,46.2c0.4-8.5,1.9-22,8.5-36.6c12.9-29,37.7-45.6,47.1-51.7C696,451.8,719.8,448.4,720.9,433.9z"/>
					</defs>
					<clipPath id="SVGID_12_">
						<use xlink:href="#SVGID_11_"  style="overflow:visible;"/>
					</clipPath>
					<path id="XMLID_40_" class="st8" d="M771.5,341.5v233.5h-48.7c-10.4,0-20.8,0-31.2,0c-0.1,0-0.9,0-1.4-1
						c-0.4-0.6-0.6-1.5-0.6-2.5v-0.3c0-1.9,0.9-3.5,2-3.5h5.7c1.1,0,2-1.6,2-3.5v-0.2c0-1.9-0.9-3.5-2-3.5h-24.9c-1.1,0-2-1.6-2-3.5
						v-0.3c0-1.9,0.9-3.5,2-3.5h33.9c1.1,0,2-1.6,2-3.5v-0.3c0-1.9-0.9-3.5-2-3.5h-16.1c-1.1,0-2-1.6-2-3.5v-0.3
						c0-1.9,0.9-3.5,2-3.5h24.6c1.1,0,2-1.6,2-3.5v-0.3c0-1.9-0.9-3.5-2-3.5h-38.6c-1.1,0-2-1.6-2-3.5V527c0-1.9,0.9-3.5,2-3.5h21.3
						c1.1,0,2-1.6,2-3.5l0,0c0-1.9,0.9-3.5,2-3.5h10.2c1.1,0,2-1.6,2-3.5v-0.1c0-1.9-0.9-3.5-2-3.5h-24.9c-1.1,0-2-1.6-2-3.5v-0.2
						c0-1.9-0.9-3.5-2-3.5h-10.4c-1.1,0-2-1.6-2-3.5v-0.4c0-1.9,0.9-3.5,2-3.5h35.8c1.1,0,2-1.5,2-3.5v-0.4c0-1.9-0.9-3.5-2-3.5h-18
						c-1.1,0-2-1.5-2-3.5v-0.4c0-1.9,0.9-3.5,2-3.5h12.7c1.1,0,2-1.5,2-3.5V476c0-1.9-0.9-3.5-2-3.5h-26.6c-1.1,0-2-1.5-2-3.5v-0.4
						c0-1.9,0.9-3.5,2-3.5h41.4c1.1,0,2-1.5,2-3.5l0,0c0-1.9-0.9-3.5-2-3.5h-26c-1.1,0-2-1.5-2-3.5v-0.4c0-1.9,0.9-3.5,2-3.5h14.8
						c1.1,0,2-1.5,2-3.5v-0.2c0-1.9-0.9-3.5-2-3.5h-34c-1.1,0-2-1.5-2-3.5v-0.4c0-1.9,0.9-3.5,2-3.5h34c1.1,0,2-1.5,2-3.5v-0.4
						c0-1.9-0.9-3.5-2-3.5h-16.2c-1.1,0-2-1.5-2-3.5V425c0-1.9,0.9-3.5,2-3.5h24.7c1.1,0,2-1.5,2-3.5v-0.4c0-1.9-0.9-3.5-2-3.5
						h-38.6c-1.1,0-2-1.6-2-3.5v-0.3c0-1.9,0.9-3.5,2-3.5h21.3c1.1,0,2-1.6,2-3.5l0,0c0-1.9,0.9-3.5,2-3.5h10.2c1.1,0,2-1.6,2-3.5
						v-0.1c0-1.9-0.9-3.5-2-3.5h-24.9c-0.7-1.3-1.4-2.5-2-3.8c0-1.9-0.9-3.5-2-3.5h-10.4c-1.1,0-2-1.6-2-3.5v-0.3
						c0-1.9,0.9-3.5,2-3.5H708c1.1,0,2-1.6,2-3.5v-0.3c0-1.9-0.9-3.5-2-3.5h-18c-1.1,0-2-1.6-2-3.5v-0.3c0-1.9,0.9-3.5,2-3.5h12.7
						c1.1,0,2-1.6,2-3.5v-0.3c0-1.9-0.9-3.5-2-3.5h-26.6c-1.1,0-2-1.6-2-3.5V352c0-1.9,0.9-3.5,2-3.5h21.3c1.1,0,2-1.6,2-3.5l0,0
						c0-1.9,0.9-3.5,2-3.5c7.4,0,14.8,0,22.2,0L771.5,341.5z"/>
				</g>
				<g>
					<defs>
						<path id="SVGID_13_" d="M720.9,433.9c0.4-4.7-1.5-8.9,0.4-17.5c1.7-7.7,5.2-13.5,8.1-17.4c-2.3-2-6.1-5-11.3-7.4
							c-17.8-8.3-31-0.6-41.4-10c-0.8-0.7-6.7-6.3-5.6-12c1.2-5.7,9.4-10.2,20.5-10.4c18.4-0.4,32,8.1,33.5,9.2
							c9,7,13,15.8,14.8,20.3c1.3-0.8,2.5-1.6,3.8-2.4c-2.1-4.7-7.5-15.4-19.2-22.7c-9.3-5.9-18.3-7.1-22.1-7.6
							c-5.4-0.7-10.1-0.4-13.4,0c-0.1-1.6-0.2-6.1,2.9-9.4c1.7-1.8,4.1-2.9,7.8-3.3c25.3-2.3,38.8,11.4,38.8,11.4
							c10.5,10.8,11.7,24.3,11.8,28.2c1.5-0.4,3.7-0.9,6.3-1.1c8.9-0.7,15.7,2.3,19.3,4c10.5,4.8,16.9,14,29.7,32.3
							c3.2,4.6,5.3,7.9,4.7,12c-1.1,8.1-11.8,12.9-12.8,13.3c-3.3,1.4-6.1,1.8-7.6,2c-5.7,0.7-15.8,1.8-30.8,2.1
							c2.7,8.5,6,21.8,5.6,38c-0.7,31.7-14.8,54.1-5,63.1c5.3,4.8,12.3,1,20.3,8.2c5.4,4.8,7.5,11.2,8.5,15.7c-10.7,0-21.4,0-32,0
							c-0.5-3.1-3.2-15.7-14.8-24.4c-8.1-6.1-16.6-7.2-20.3-7.5c0.5-0.5,7.8-7.6,5.7-17.7c-1.6-8.3-8.5-12.3-9.5-12.9
							c-1.7,0.3-3.4,0.7-5.1,1c2.1,1.1,6.6,3.9,8.5,9.1c2.8,7.9-1.4,18.1-11.1,24.1c5.7-0.1,13.3,0.7,21.3,4.3
							c4.5,2.1,9.8,4.4,13.7,10.2c3.7,5.3,4.4,10.8,4.6,13.7H534.1c-11.7-3.8-15.3-9.8-16.5-12.7c-7.1-16.2,12.4-43.4,33.8-48.6
							c22.4-5.2,51.3,12.6,62.6,46.2c0.4-8.5,1.9-22,8.5-36.6c12.9-29,37.7-45.6,47.1-51.7C696,451.8,719.8,448.4,720.9,433.9z"/>
					</defs>
					<clipPath id="SVGID_14_">
						<use xlink:href="#SVGID_13_"  style="overflow:visible;"/>
					</clipPath>
					<path id="XMLID_39_" class="st9" d="M834.1,341.5v233.5h-62.6c-10.4,0-20.8,0-31.2,0c-0.1,0-0.9,0-1.4-1
						c-0.4-0.6-0.6-1.5-0.6-2.5v-0.3c0-1.9,0.9-3.5,2-3.5h5.7c1.1,0,2-1.6,2-3.5v-0.2c0-1.9-0.9-3.5-2-3.5h-24.9c-1.1,0-2-1.6-2-3.5
						v-0.3c0-1.9,0.9-3.5,2-3.5H755c1.1,0,2-1.6,2-3.5v-0.3c0-1.9-0.9-3.5-2-3.5h-16.1c-1.1,0-2-1.6-2-3.5v-0.3c0-1.9,0.9-3.5,2-3.5
						h24.6c1.1,0,2-1.6,2-3.5v-0.3c0-1.9-0.9-3.5-2-3.5h-38.6c-1.1,0-2-1.6-2-3.5V527c0-1.9,0.9-3.5,2-3.5h21.3c1.1,0,2-1.6,2-3.5
						l0,0c0-1.9,0.9-3.5,2-3.5h10.2c1.1,0,2-1.6,2-3.5v-0.1c0-1.9-0.9-3.5-2-3.5h-24.9c-1.1,0-2-1.6-2-3.5v-0.2c0-1.9-0.9-3.5-2-3.5
						h-10.4c-1.1,0-2-1.6-2-3.5v-0.4c0-1.9,0.9-3.5,2-3.5h35.8c1.1,0,2-1.5,2-3.5v-0.4c0-1.9-0.9-3.5-2-3.5h-18c-1.1,0-2-1.5-2-3.5
						v-0.4c0-1.9,0.9-3.5,2-3.5h12.7c1.1,0,2-1.5,2-3.5V476c0-1.9-0.9-3.5-2-3.5h-26.6c-1.1,0-2-1.5-2-3.5v-0.4c0-1.9,0.9-3.5,2-3.5
						h41.4c1.1,0,2-1.5,2-3.5l0,0c0-1.9-0.9-3.5-2-3.5h-26c-1.1,0-2-1.5-2-3.5v-0.4c0-1.9,0.9-3.5,2-3.5H755c1.1,0,2-1.5,2-3.5v-0.2
						c0-1.9-0.9-3.5-2-3.5h-34c-1.1,0-2-1.5-2-3.5v-0.4c0-1.9,0.9-3.5,2-3.5h34c1.1,0,2-1.5,2-3.5v-0.4c0-1.9-0.9-3.5-2-3.5h-16.2
						c-1.1,0-2-1.5-2-3.5V425c0-1.9,0.9-3.5,2-3.5h24.7c1.1,0,2-1.5,2-3.5v-0.4c0-1.9-0.9-3.5-2-3.5h-38.6c-1.1,0-2-1.6-2-3.5v-0.3
						c0-1.9,0.9-3.5,2-3.5h21.3c1.1,0,2-1.6,2-3.5l0,0c0-1.9,0.9-3.5,2-3.5h10.2c1.1,0,2-1.6,2-3.5v-0.1c0-1.9-0.9-3.5-2-3.5h-24.9
						c-0.7-1.3-1.4-2.5-2-3.8c0-1.9-0.9-3.5-2-3.5H721c-1.1,0-2-1.6-2-3.5v-0.3c0-1.9,0.9-3.5,2-3.5h35.7c1.1,0,2-1.6,2-3.5v-0.3
						c0-1.9-0.9-3.5-2-3.5h-18c-1.1,0-2-1.6-2-3.5v-0.3c0-1.9,0.9-3.5,2-3.5h12.7c1.1,0,2-1.6,2-3.5v-0.3c0-1.9-0.9-3.5-2-3.5h-26.6
						c-1.1,0-2-1.6-2-3.5V352c0-1.9,0.9-3.5,2-3.5h21.3c1.1,0,2-1.6,2-3.5l0,0c0-1.9,0.9-3.5,2-3.5c7.4,0,14.8,0,22.2,0L834.1,341.5
						z"/>
				</g>
			</g>
		</g>
	</g>
</g>
<path id="XMLID_50_" class="st1" d="M1094.9,515.4v-0.8c0-9.4-7.6-17-17-17h-26.6c-9.4,0-17-7.6-17-17v-0.5c0-9.4-7.6-17-17-17
	h-81.8c-9.4,0-17,7.6-17,17v0.5c0,9.4-7.6,17-17,17h-25.7c-9.4,0-17,7.6-17,17v0.3c0,9.4-7.6,17-17,17h-36.6c-9.4,0-17,7.6-17,17
	v0.5c0,9.4-7.6,17-17,17H669.4c-9.4,0-17,7.6-17,17v0.8c0,9.4,7.6,17,17,17H1078c9.4,0,17-7.6,17-17v-0.8c0-9.4-7.6-17-17-17h-11.6
	c-9.4,0-17-7.6-17-17l0,0c0-9.4,7.6-17,17-17h11.6C1087.3,532.4,1094.9,524.8,1094.9,515.4z"/>
</svg>
