<?xml version="1.0" encoding="utf-8"?>
<!-- Generator: Adobe Illustrator 19.0.0, SVG Export Plug-In . SVG Version: 6.00 Build 0)  -->
<svg version="1.1" id="Layer_2" xmlns="http://www.w3.org/2000/svg" xmlns:xlink="http://www.w3.org/1999/xlink" x="0px" y="0px"
	 viewBox="0 0 16.3 12.2" style="enable-background:new 0 0 16.3 12.2;" xml:space="preserve">
<style type="text/css">
	.st0{fill:#FFC000;}
</style>
<g id="XMLID_7_">
	<g id="XMLID_141_">
		<path id="XMLID_148_" class="st0" d="M5.2,9.3l-1.6,0l0-4.1c0-0.2-0.1-0.4-0.2-0.6C3.2,4.5,3,4.4,2.8,4.4v0v0
			c-0.2,0-0.4,0.1-0.6,0.2C2.1,4.8,2,5,2,5.2l0,4.1h0H0.4l0-0.4l0-3.7l0-5L2,0.7L2,3c0.3-0.1,0.6-0.1,0.8-0.1c0.3,0,0.6,0.1,0.9,0.2
			C4,3.1,4.3,3.3,4.5,3.5C4.7,3.8,4.9,4,5,4.3c0.1,0.3,0.2,0.6,0.2,0.9L5.2,9.3z"/>
		<path id="XMLID_145_" class="st0" d="M10.9,6v0.7v0.3v2.4H9.3V9C9,9.2,8.6,9.3,8.2,9.3c-0.4,0-0.8,0-1.2-0.2
			C6.7,9,6.4,8.8,6.1,8.4C5.8,8.1,5.7,7.7,5.6,7.1c0,0,0-0.1,0-0.1c0,0,0-0.1,0-0.1c0-0.3,0.1-0.6,0.2-0.9c0.1-0.3,0.3-0.5,0.5-0.7
			C6.5,5.2,6.8,5,7.1,4.9c0.3-0.1,0.5-0.2,0.8-0.2c0.3,0,0.5,0,0.8,0.1c0.2,0.1,0.4,0.2,0.6,0.3v0c0-0.3-0.1-0.6-0.3-0.7
			C8.8,4.2,8.5,4,8.2,4C7.9,4,7.5,4,7.1,4.1C6.7,4.2,6.3,4.4,6,4.6L5.7,3.4c0.7-0.3,1.4-0.6,2-0.6c0.6-0.1,1.2,0,1.6,0.2
			c0.5,0.2,0.8,0.5,1.1,1C10.7,4.5,10.9,5.1,10.9,6L10.9,6z M8.4,7.7c0.2,0,0.4-0.1,0.6-0.2c0.2-0.2,0.2-0.4,0.2-0.6
			c0-0.2-0.1-0.4-0.2-0.6C8.8,6.1,8.6,6,8.4,6C8.1,6,7.9,6.1,7.8,6.3C7.6,6.4,7.5,6.6,7.5,6.9c0,0.2,0.1,0.4,0.2,0.6
			C7.9,7.6,8.1,7.7,8.4,7.7z"/>
		<path id="XMLID_142_" class="st0" d="M14.3,3.2c0.4,0.2,0.7,0.5,0.9,0.9c0.2,0.3,0.4,0.7,0.5,1.1C15.9,5.6,16,6,15.9,6.5
			c0,0.4-0.2,0.8-0.4,1.2c-0.3,0.5-0.7,0.9-1.1,1.2c-0.5,0.3-1,0.4-1.5,0.5v1.4v0v0.6l-1.6,0.4v-1v0l0-4.5V5.2V2.8l1.6,0v0
			c0.2,0,0.5,0.1,0.7,0.1C13.9,3,14.1,3.1,14.3,3.2z M14.4,6.1c0-0.2,0-0.4-0.1-0.6c-0.1-0.2-0.2-0.4-0.3-0.5
			c-0.1-0.2-0.3-0.3-0.5-0.4c-0.2-0.1-0.4-0.2-0.6-0.2v0.8v1.1v1.5c0.2,0,0.4-0.1,0.6-0.2c0.2-0.1,0.3-0.2,0.5-0.4
			c0.1-0.1,0.2-0.3,0.3-0.5C14.3,6.5,14.4,6.3,14.4,6.1z"/>
	</g>
</g>
</svg>
