<?xml version="1.0" encoding="utf-8"?>
<!-- Generator: Adobe Illustrator 19.0.0, SVG Export Plug-In . SVG Version: 6.00 Build 0)  -->
<svg version="1.1" id="Layer_1" xmlns="http://www.w3.org/2000/svg" xmlns:xlink="http://www.w3.org/1999/xlink" x="0px" y="0px"
	 viewBox="0 0 172 172.2" style="enable-background:new 0 0 172 172.2;" xml:space="preserve">
<style type="text/css">
	.st0{fill:#FFC000;}
	.st1{fill:none;stroke:#FFFFFF;stroke-width:7;stroke-miterlimit:10;}
	.st2{fill:none;stroke:#FFC000;stroke-width:7;stroke-miterlimit:10;}
</style>
<path id="XMLID_6_" class="st0" d="M124.3,160.3c-5.3-3.7-8.1-2.1-10.9-4.6c-6.7-6.1,2.9-21.7,3.4-42.9c0.2-11.1-2-20.1-3.8-25.9
	c10.2-0.2,17.1-0.9,21-1.4c0.9-0.1,2.9-0.4,5.1-1.3c0.7-0.3,8-3.6,8.7-9.1c0.4-2.8-1-5-3.2-8.2c-8.7-12.5-13.1-18.7-20.2-22
	c-2.4-1.1-7.1-3.2-13.1-2.7c-1.8,0.1-3.3,0.5-4.3,0.8c-0.1-2.7-0.8-11.8-8-19.2c0,0-9.2-9.4-26.4-7.8c-2.5,0.2-4.1,1-5.3,2.2
	c-2.1,2.2-2,5.3-2,6.4c2.3-0.3,5.4-0.4,9.1,0c2.5,0.3,8.7,1.1,15,5.1c8,5,11.7,12.3,13.1,15.5c-0.9,0.5-1.7,1.1-2.6,1.6
	c-1.2-3.1-3.9-9-10.1-13.8c-1-0.7-10.2-6.6-22.8-6.3c-7.6,0.2-13.2,3.2-14,7.1c-0.8,3.9,3.2,7.7,3.8,8.1c7.1,6.4,16.1,1.2,28.2,6.8
	c3.5,1.6,6.1,3.7,7.7,5c-1.9,2.6-4.4,6.6-5.5,11.8c-1.3,5.8,0,8.7-0.3,11.9c-0.8,9.8-16.9,12.2-35,23.9
	c-6.4,4.2-23.3,15.5-32.1,35.2c5.6,6.3,19.9,20.6,43.3,27.2c18.2,5.1,33.7,3.2,41.8,1.6c0,0,0,0,0,0c-0.1-0.3-0.7-1.6-1.6-2.9
	c-2.7-3.9-6.3-5.5-9.3-6.9c-5.4-2.5-10.7-3-14.5-2.9c6.6-4.1,9.5-11.1,7.6-16.4c-1.3-3.6-4.4-5.5-5.8-6.2c1.2-0.2,2.3-0.4,3.5-0.7
	c0.7,0.4,5.3,3.1,6.4,8.8c1.4,6.9-3.6,11.7-3.9,12.1c2.4,0.2,8.2,0.9,13.8,5.1c4.4,3.3,6.7,7.3,7.7,9.4L124.3,160.3z"/>
<circle id="XMLID_19_" class="st1" cx="85.7" cy="86" r="78"/>
<circle id="XMLID_18_" class="st2" cx="85.9" cy="85.8" r="81.5"/>
</svg>
