<?xml version="1.0" encoding="utf-8"?>
<!-- Generator: Adobe Illustrator 19.0.0, SVG Export Plug-In . SVG Version: 6.00 Build 0)  -->
<svg version="1.1" xmlns="http://www.w3.org/2000/svg" xmlns:xlink="http://www.w3.org/1999/xlink" x="0px" y="0px"
	 viewBox="0 0 571.6 449.6" style="enable-background:new 0 0 571.6 449.6;" xml:space="preserve">
<style type="text/css">
	.st0{display:none;}
	.st1{display:inline;fill:#FFDF19;}
	.st2{fill:#FFC000;}
	.st3{display:inline;fill:#0085BD;}
</style>
<g id="Layer_1" class="st0">
	<path id="XMLID_2_" class="st1" d="M780.1,228.2c-1.3-3.2-34.7-55.2-36.6-55.8s-57.8-11.6-66.1-10.9c-8.3,0.6-35.9,12.8-35.9,19.9
		s28.9,34,38.5,35.9c9.6,1.9,50,4.5,56.4,7.1c6.5,2.6,20.6,18,20.6,18l-20.6,27.6c0,0,3.9,32.1,8.4,37.2
		c4.5,5.1,66.7,24.4,66.7,24.4c25.7,4.2,51.4,8.3,77.2,12.5c14.2-6.9,28.4-13.7,42.5-20.6c0.1-4.2,0.2-8.3,0.3-12.5
		c-19.9-29.5-39.8-59-59.7-88.6l-41.7-17.3c0,0-25,8.3-28.9,3.2s-29.5-60.3-33.4-64.2c-3.9-3.9-70.6-13.5-70.6-13.5
		s-14.8,8.3-15.4,10.9c-0.6,2.6-3.2,11.6-3.2,11.6l70,12.8l38,56.5L780.1,228.2z"/>
</g>
<g id="Layer_2" class="st0">
	<path id="XMLID_1_" class="st1" d="M736.4,269.9c1.2,12.4,2.4,24.7,3.6,37.1c-89.7,66.7-179.3,133.3-269,200
		c-27.7-2.3-55.3-4.7-83-7l-45,32c0,0,31,29,35,29s408.7,7,408.7,7L775,523l-77-8c12-18.3,24-36.7,36-55c-10.7-11-21.3-22-32-33
		c16.3,11.3,32.7,22.7,49,34c-9,15-18,30-27,45c20.9,2.3,41.8,4.7,62.7,7l17.3,55l60-9c0,0-8-50-13-54s-42-30-42-30
		c5.7-38.3,11.3-76.7,17-115c-4.8-9.5-9.7-19-14.5-28.5C786.5,311,761.4,290.4,736.4,269.9z"/>
	<path id="XMLID_3_" class="st1" d="M950,627"/>
</g>
<g id="Layer_4">
	<path id="XMLID_6_" class="st2" d="M392.6,176.5c0.7-8.8-2.8-16.9,0.7-33.1c3.2-14.6,9.9-25.6,15.4-32.9c-4.4-3.8-11.5-9.4-21.3-14
		c-33.7-15.7-58.7-1.1-78.4-19c-1.5-1.4-12.8-11.9-10.6-22.7c2.3-10.9,17.7-19.4,38.9-19.8c35-0.7,60.7,15.4,63.4,17.5
		c17.1,13.3,24.7,29.9,28,38.5c2.4-1.5,4.8-3,7.3-4.5c-3.9-9-14.1-29.1-36.4-43.1C382,32.3,364.9,30,357.8,29.1
		c-10.3-1.3-19.1-0.8-25.4-0.1c-0.2-3-0.4-11.6,5.5-17.8c3.2-3.4,7.7-5.6,14.7-6.2c48-4.4,73.5,21.7,73.5,21.7
		c20,20.5,22.1,46,22.4,53.4c2.8-0.8,6.9-1.7,11.9-2.1c16.8-1.4,29.8,4.4,36.5,7.5c19.9,9.2,32,26.5,56.3,61.3
		c6.1,8.7,10.1,15,9,22.8c-2.1,15.4-22.3,24.4-24.3,25.3c-6.3,2.7-11.6,3.4-14.3,3.8c-10.8,1.3-30,3.3-58.4,3.9
		c5.1,16.1,11.3,41.3,10.6,72.1c-1.4,60.1-28,102.6-9.5,119.5c10,9.1,23.3,2,38.5,15.5c10.2,9.1,14.2,21.2,16,29.7
		c-20.2,0-40.5,0-60.7,0c-1-5.8-6-29.7-28.1-46.3c-15.4-11.5-31.4-13.6-38.4-14.1c1-0.9,14.7-14.5,10.9-33.6
		c-3.1-15.8-16-23.4-17.9-24.5c-3.2,0.6-6.4,1.3-9.6,1.9c3.9,2.1,12.6,7.4,16.2,17.3c5.3,14.9-2.7,34.4-21.1,45.8
		c10.7-0.2,25.2,1.3,40.4,8.2c8.5,3.9,18.5,8.4,26,19.3c7,10.1,8.4,20.5,8.7,26H38.6c-22.2-7.3-29-18.6-31.3-24
		c-13.5-30.8,23.5-82.3,64-92c42.5-10.1,97.3,23.7,118.7,87.3c0.7-16.2,3.7-41.7,16-69.3c24.5-54.9,71.5-86.4,89.3-98
		C345.5,210.4,390.5,203.9,392.6,176.5z"/>
</g>
<g id="Layer_3" class="st0">
	<rect id="XMLID_4_" x="273.7" y="565.7" class="st3" width="750" height="156.7"/>
</g>
</svg>
