<?xml version="1.0" encoding="utf-8"?>
<!-- Generator: Adobe Illustrator 19.0.0, SVG Export Plug-In . SVG Version: 6.00 Build 0)  -->
<svg version="1.1" id="Capa_1" xmlns="http://www.w3.org/2000/svg" xmlns:xlink="http://www.w3.org/1999/xlink" x="0px" y="0px"
	 viewBox="143 -143.2 486.2 486.2" style="enable-background:new 143 -143.2 486.2 486.2;" xml:space="preserve">
<style type="text/css">
	.st0{fill:#FFC000;}
</style>
<path class="st0" d="M624.7,77.3L395.9-127.3c-0.4-0.4-0.8-0.7-1.3-1c-5-4.8-13-5-18.3-0.3L147.5,76c-5.6,5-6,13.5-1.1,19.1
	c2.7,3,6.4,4.5,10.1,4.5c3.2,0,6.4-1.1,9-3.4l41.2-36.9v7.2v106.8v124.6c0,18.7,15.2,34,34,34c0.3,0,0.5,0,0.8,0s0.5,0,0.8,0h70.6
	c17.6,0,31.9-14.3,31.9-31.9V178.7c0-2.7,2.2-4.9,4.9-4.9h72.9c2.7,0,4.9,2.2,4.9,4.9V300c0,17.6,14.3,31.9,31.9,31.9h72.2
	c19,0,34-18.7,34-42.6V178.1v-34V60.6l41.2,36.9c2.6,2.3,5.8,3.4,9,3.4c3.7,0,7.4-1.5,10.1-4.5C630.7,90.8,630.2,82.3,624.7,77.3z
	 M538.5,144v34v111.1c0,9.7-4.8,15.6-7,15.6h-72.2c-2.7,0-4.9-2.2-4.9-4.9V178.7c0-17.6-14.3-31.9-31.9-31.9h-72.9
	c-17.6,0-31.9,14.3-31.9,31.9V300c0,2.7-2.2,4.9-4.9,4.9h-70.6c-0.3,0-0.5,0-0.8,0c-0.3,0-0.5,0-0.8,0c-3.8,0-7-3.1-7-7V173.2V66.4
	V35.1l151.8-135.6L538.5,36.4L538.5,144L538.5,144z"/>
</svg>
