<?xml version="1.0" encoding="utf-8"?>
<!-- Generator: Adobe Illustrator 19.0.0, SVG Export Plug-In . SVG Version: 6.00 Build 0)  -->
<svg version="1.1" id="Capa_1" xmlns="http://www.w3.org/2000/svg" xmlns:xlink="http://www.w3.org/1999/xlink" x="0px" y="0px"
	 viewBox="0 91 612 612" style="enable-background:new 0 91 612 612;" xml:space="preserve">
<style type="text/css">
	.st0{fill:#808080;}
</style>
<g>
	<path class="st0" d="M516.3,428.5l94.2,193.6c3.8,7.9-0.2,14.3-9,14.3H10.4c-8.8,0-12.8-6.4-9-14.3l94.2-193.6
		c1.5-3.1,5.5-5.6,9-5.6h80.8c2.5,0,5.9,1.6,7.5,3.4c5.5,6.3,11.1,12.5,16.6,18.6c5.3,5.8,10.6,11.7,15.9,17.7h-95.9
		c-3.4,0-7.5,2.5-9,5.6L58.2,596.6h495.7l-62.4-128.2c-1.5-3.1-5.5-5.6-9-5.6h-96.1c5.3-6,10.6-11.9,15.9-17.7
		c5.6-6.1,11.2-12.3,16.7-18.7c1.6-1.9,5-3.4,7.5-3.4h81C510.8,422.9,514.8,425.4,516.3,428.5z M444.5,296.2
		c0,105.8-88.1,125.6-129.5,227.3c-3.4,8.3-15,8.2-18.4,0c-37.4-91.7-112.6-116.8-127-198.4c-14.2-80.4,41.5-159.1,122.7-166.8
		C375,150.4,444.5,215.2,444.5,296.2z M379.1,296.2c0-40.4-32.8-73.2-73.2-73.2s-73.2,32.8-73.2,73.2c0,40.4,32.8,73.2,73.2,73.2
		S379.1,336.7,379.1,296.2z"/>
</g>
</svg>
