<?xml version="1.0" encoding="utf-8"?>
<!-- Generator: Adobe Illustrator 19.0.0, SVG Export Plug-In . SVG Version: 6.00 Build 0)  -->
<svg version="1.1" id="Layer_1" xmlns="http://www.w3.org/2000/svg" xmlns:xlink="http://www.w3.org/1999/xlink" x="0px" y="0px"
	 viewBox="-703 705 512 512" style="enable-background:new -703 705 512 512;" xml:space="preserve">
<style type="text/css">
	.st0{fill:#FFFFFF;}
</style>
<path class="st0" d="M-571.1,999.8c-21.4,0-38.8-17.4-38.8-38.8s17.4-38.8,38.8-38.8s38.8,17.4,38.8,38.8S-549.7,999.8-571.1,999.8z
	"/>
<path class="st0" d="M-447,999.8c-21.4,0-38.8-17.4-38.8-38.8s17.4-38.8,38.8-38.8s38.8,17.4,38.8,38.8S-425.6,999.8-447,999.8z"/>
<path class="st0" d="M-322.9,999.8c-21.4,0-38.8-17.4-38.8-38.8s17.4-38.8,38.8-38.8s38.8,17.4,38.8,38.8S-301.5,999.8-322.9,999.8z
	"/>
</svg>
