<?xml version="1.0" encoding="utf-8"?>
<!-- Generator: Adobe Illustrator 19.0.0, SVG Export Plug-In . SVG Version: 6.00 Build 0)  -->
<svg version="1.1" xmlns="http://www.w3.org/2000/svg" xmlns:xlink="http://www.w3.org/1999/xlink" x="0px" y="0px"
	 viewBox="119 -119.5 438.5 438.5" style="enable-background:new 119 -119.5 438.5 438.5;" xml:space="preserve">
<style type="text/css">
	.st0{fill:#FFC000;}
</style>
<path class="st0" d="M542.7,130c0,7.9-2.9,14.7-8.6,20.4c-5.8,5.7-12.6,8.6-20.4,8.6l-116.2,0l0,116.1c0,7.9-2.9,14.7-8.6,20.4
	c-5.7,5.7-12.5,8.6-20.4,8.6l-58.1,0c-7.9,0-14.7-2.9-20.4-8.6c-5.7-5.8-8.6-12.6-8.6-20.4l0-116.1l-116.2,0
	c-7.9,0-14.7-2.9-20.4-8.6c-5.7-5.7-8.6-12.6-8.6-20.4l0-58.1c0-7.9,2.9-14.7,8.6-20.4c5.7-5.7,12.6-8.6,20.4-8.6l116.2,0l0-116.2
	c0-7.9,2.9-14.7,8.6-20.4c5.7-5.7,12.6-8.6,20.4-8.6l58.1,0c7.9,0,14.7,2.9,20.4,8.6c5.7,5.7,8.6,12.6,8.6,20.4l0,116.2l116.1,0
	c7.9,0,14.7,2.9,20.4,8.6c5.7,5.7,8.6,12.6,8.6,20.4L542.7,130z"/>
</svg>
