<?xml version="1.0" encoding="utf-8"?>
<!-- Generator: Adobe Illustrator 19.0.0, SVG Export Plug-In . SVG Version: 6.00 Build 0)  -->
<svg version="1.1" id="Layer_1" xmlns="http://www.w3.org/2000/svg" xmlns:xlink="http://www.w3.org/1999/xlink" x="0px" y="0px"
	 viewBox="-740 741.5 438.5 438.5" style="enable-background:new -740 741.5 438.5 438.5;" xml:space="preserve">
<style type="text/css">
	.st0{fill:#FFFFFF;}
</style>
<path class="st0" d="M-316.5,990.8c0,7.9-2.9,14.7-8.6,20.4c-5.8,5.7-12.6,8.6-20.4,8.6h-116.2v116.1c0,7.9-2.9,14.7-8.6,20.4
	c-5.7,5.7-12.5,8.6-20.4,8.6h-58.1c-7.9,0-14.7-2.9-20.4-8.6c-5.7-5.8-8.6-12.6-8.6-20.4v-116.1H-694c-7.9,0-14.7-2.9-20.4-8.6
	c-5.7-5.7-8.6-12.6-8.6-20.4v-58.1c0-7.9,2.9-14.7,8.6-20.4s12.6-8.6,20.4-8.6h116.2V787.5c0-7.9,2.9-14.7,8.6-20.4
	c5.7-5.7,12.6-8.6,20.4-8.6h58.1c7.9,0,14.7,2.9,20.4,8.6c5.7,5.7,8.6,12.6,8.6,20.4v116.2h116.1c7.9,0,14.7,2.9,20.4,8.6
	c5.7,5.7,8.6,12.6,8.6,20.4L-316.5,990.8z"/>
</svg>
