<?xml version="1.0" encoding="utf-8"?>
<!-- Generator: Adobe Illustrator 19.0.0, SVG Export Plug-In . SVG Version: 6.00 Build 0)  -->
<svg version="1.1" id="Layer_1" xmlns="http://www.w3.org/2000/svg" xmlns:xlink="http://www.w3.org/1999/xlink" x="0px" y="0px"
	 viewBox="-459 761 1000 400" style="enable-background:new -459 761 1000 400;" xml:space="preserve">
<style type="text/css">
	.st0{fill:#873100;}
	.st1{fill:#00C03C;}
	.st2{fill:#561A00;}
	.st3{clip-path:url(#SVGID_2_);fill:#C65200;}
	.st4{clip-path:url(#SVGID_4_);fill:#FFC000;}
	.st5{clip-path:url(#SVGID_6_);fill:#FFC000;}
	.st6{clip-path:url(#SVGID_8_);fill:#E98F00;}
	.st7{clip-path:url(#SVGID_10_);fill:#E36C00;}
	.st8{clip-path:url(#SVGID_12_);fill:#C65200;}
	.st9{clip-path:url(#SVGID_14_);fill:#C65200;}
</style>
<path id="XMLID_49_" class="st0" d="M366.5,1067.5v-27.7c0-9.2-6.1-16.7-13.6-16.7l0,0c-7.5,0-13.6-7.5-13.6-16.7v-27.2
	c0-9.2-6.1-16.7-13.6-16.7h-2.7c-7.5,0-13.6-7.5-13.6-16.7V918c0-9.2-6.1-16.7-13.6-16.7h-37.6c-7.5,0-13.6-7.5-13.6-16.7v-27.6
	c0-9.2-6.1-16.7-13.6-16.7H168c-7.5,0-13.6-7.5-13.6-16.7v-27.7c0-9.2-6.1-16.7-13.6-16.7H5.2c-7.5,0-13.6,7.5-13.6,16.7v27.7
	c0,9.2-6.1,16.7-13.6,16.7h-18.2c-7.5,0-13.6,7.5-13.6,16.7v27.6c0,9.2-6.1,16.7-13.6,16.7h-3.8c-7.5,0-13.6,7.5-13.6,16.7v27.7
	c0,9.2-6.1,16.7-13.6,16.7H-117c-7.5,0-13.6,7.5-13.6,16.7v27.2c0,9.2-6.1,16.7-13.6,16.7h-53.3c-7.5,0-13.6,7.5-13.6,16.7v27.7
	c0,9.2-6.1,16.7-13.6,16.7h-24.6c-7.5,0-13.6,7.5-13.6,16.7v28.2c0,9.2,6.1,16.7,13.6,16.7h689.8c7.5,0,13.6-7.5,13.6-16.7V1101
	c0-9.2-6.1-16.7-13.6-16.7h-60.1C372.6,1084.3,366.5,1076.8,366.5,1067.5z"/>
<path id="XMLID_51_" class="st1" d="M-70.2,1020.5v-12.6c0-7-5.7-12.7-12.7-12.7h-161.4c-7,0-12.7,5.7-12.7,12.7v12.6
	c0,7,5.7,12.7,12.7,12.7l0,0c7,0,12.7,5.7,12.7,12.7v11.7c0,7-5.7,12.7-12.7,12.7h-29.1c-7,0-12.7,5.7-12.7,12.7v12.2
	c0,7-5.7,12.7-12.7,12.7h-81.5c-7,0-12.7,5.7-12.7,12.7v12.6c0,7,5.7,12.7,12.7,12.7h237.8c7,0,12.7-5.7,12.7-12.7V1121
	c0-7,5.7-12.7,12.7-12.7H-96c7,0,12.7-5.7,12.7-12.7V1083c0-7-5.7-12.7-12.7-12.7h-8.7c-7,0-12.7-5.7-12.7-12.7v-11.7
	c0-7,5.7-12.7,12.7-12.7h21.8C-75.9,1033.2-70.2,1027.5-70.2,1020.5z"/>
<g id="XMLID_10_">
	<g>
		<circle id="XMLID_2_" class="st2" cx="66.1" cy="972.2" r="101.1"/>
	</g>
	<g>
		<defs>
			<circle id="SVGID_1_" cx="66.1" cy="972.2" r="101.1"/>
		</defs>
		<clipPath id="SVGID_2_">
			<use xlink:href="#SVGID_1_"  style="overflow:visible;"/>
		</clipPath>
		<path id="XMLID_3_" class="st3" d="M-219.2,883.2c-3.1,2.6-7.7,6.6-12.9,11.8c-11.6,11.7-11,14.5-16.1,18.1
			c-12.7,9.1-23.7-2.5-41.2,2.8c-3.9,1.2-8.3,3.3-25.8,21.6c-28.6,30-43,45.4-46.4,66c-1.8,11.3-1.6,27.9,4.5,30.6
			c3.3,1.5,7.7-1.5,9.7-2.8c7.5-5,10.5-13.5,11.3-15.6c5.9-16.1,23.3-45.2,43.5-53.9c3.2-1.4,12-1.4,29.6-1.4
			c31.2,0,35.8,1.9,50.2,1.4c30.3-1.2,33.5-10.7,58.6-12.5c26.9-1.9,47,7.3,59.9,12.5c29.2,11.8,77.5,25.6,161,34.1
			c3.2,4.2,8.1,10,15,15.8c11.3,9.3,21.5,13,29.6,16.2c11.5,4.5,27.7,11.5,47.8,22.2c5.3-8.2,10.5-16.5,15.8-24.7
			c-13.7-4.4-23.9-10.1-30.6-14.6c-8.8-5.9-13.1-10.5-14.5-16.7c-0.5-2.4-0.6-5.1,0-8.7c2.4-13.4,13.8-33.5,26.8-33.4
			c12.2,0.1,20.3,17.9,22.9,16.4c1.3-0.8,0.5-5.7-5.5-19.6c-6.9-19.3-13.8-38.5-20.7-57.8c-13.9,1.8-25.5,2.2-33.8,2.2
			c0,0-22.4,0-46-3.4c-2.1-0.3-10.5-1.5-21.9-2.8c-2.3-0.2-4-0.4-4.7-0.5c-27-2.8-69.9-18.5-147.7-47.7
			c-20.5-7.7-42.6-16.1-69.1-9.3c-9.7,2.5-17.4,6.4-22.3,9.3c0-3.6-0.9-34.2-23.2-50.8c-23.1-17.3-61-13-75.5,14.1
			c-12.4,23.2-2.6,53.7,15,70C-252.1,894-221.1,883.8-219.2,883.2z"/>
	</g>
</g>
<g id="XMLID_24_">
	<g>
		<defs>
			<path id="SVGID_3_" d="M29.2,991.4c-62.9-9.6-123.5-29.6-123.5-29.6c-12.9-5.2-33-14.5-59.9-12.5c-25.1,1.8-28.3,11.3-58.6,12.5
				c-14.4,0.6-19.1-1.4-50.2-1.4c-17.6,0-26.4,0-29.6,1.4c-20.2,8.6-37.6,37.8-43.5,53.9c-0.8,2.1-3.7,10.6-11.3,15.6
				c-1.9,1.3-6.3,4.2-9.7,2.8c-6.1-2.7-6.3-19.3-4.5-30.6c3.3-20.7,17.7-36.1,46.4-66c17.5-18.3,21.8-20.4,25.8-21.6
				c17.5-5.3,28.5,6.3,41.2-2.8c5.1-3.6,4.5-6.3,16.1-18.1c8.1-8.2,13.3-11,12.9-11.8c-0.8-1.7-18.8,11-39.3,12.7
				c-18.5,1.6-48-4.9-62.5-29.8c-13.9-23.9-8.6-55.6,10.2-74.9c23-23.7,59.3-21.6,82.9-8c30.1,17.4,35.2,51,35.8,55.5
				c5-2.9,12.6-6.8,22.3-9.3c22.2-5.7,41.2-0.5,69.1,9.3c0,0,128.9,45,140.7,46.8L29.2,991.4z"/>
		</defs>
		<clipPath id="SVGID_4_">
			<use xlink:href="#SVGID_3_"  style="overflow:visible;"/>
		</clipPath>
		<path id="XMLID_17_" class="st4" d="M-214.1,709.3l-83.6,349.7l-90.6-21.7c-19.3-4.6-38.7-9.3-58-13.9c-0.3-0.1-1.6-0.4-2.3-2.2
			c-0.5-1.1-0.6-2.5-0.2-4l0.1-0.5c0.7-2.9,2.9-4.9,5-4.4l10.7,2.7c2.1,0.5,4.3-1.5,5-4.4l0.1-0.3c0.7-2.9-0.4-5.7-2.5-6.2
			l-46.3-11.1c-2.1-0.5-3.2-3.3-2.5-6.2l0.1-0.5c0.7-2.9,2.9-4.9,5-4.4l63,15.1c2.1,0.5,4.3-1.5,5-4.4l0.1-0.5
			c0.7-2.9-0.4-5.7-2.5-6.2l-30-7.2c-2.1-0.5-3.2-3.3-2.5-6.2l0.1-0.5c0.7-2.9,2.9-4.9,5-4.4l45.8,11c2.1,0.5,4.3-1.5,5-4.4l0.1-0.5
			c0.7-2.9-0.4-5.7-2.5-6.2l-71.5-16.8c-2.1-0.5-3.2-3.3-2.5-6.2l0.1-0.5c0.7-2.9,2.9-4.9,5-4.4l39.5,9.4c2.1,0.5,4.3-1.5,5-4.4l0,0
			c0.7-2.9,2.9-4.9,5-4.4l18.9,4.5c2.1,0.5,4.3-1.5,5-4.4v-0.2c0.7-2.9-0.4-5.7-2.5-6.2l-46.3-11.1c-2.1-0.5-3.2-3.3-2.5-6.2
			l0.1-0.3c0.7-2.9-0.4-5.7-2.5-6.2l-19.3-4.6c-2.1-0.5-3.2-3.3-2.5-6.2l0.1-0.6c0.7-2.9,2.9-4.8,5-4.3l66.5,15.9
			c2.1,0.5,4.3-1.4,5-4.3l0.1-0.6c0.7-2.9-0.4-5.6-2.5-6.1l-33.4-8c-2.1-0.5-3.2-3.2-2.5-6.1l0.1-0.6c0.7-2.9,2.9-4.8,5-4.3
			l23.6,5.7c2.1,0.5,4.3-1.4,5-4.3l0.1-0.6c0.7-2.9-0.4-5.6-2.5-6.1l-49.5-11.8c-2.1-0.5-3.2-3.2-2.5-6.1l0.1-0.6
			c0.7-2.9,2.9-4.8,5-4.3l76.9,18.4c2.1,0.5,4.3-1.4,5-4.3l0,0c0.7-2.9-0.4-5.6-2.5-6.1l-48.2-11.5c-2.1-0.5-3.2-3.2-2.5-6.1
			l0.1-0.6c0.7-2.9,2.9-4.8,5-4.3l27.5,6.6c2.1,0.5,4.3-1.4,5-4.3l0.1-0.4c0.7-2.9-0.4-5.6-2.5-6.1l-63.1-15.2
			c-2.1-0.5-3.2-3.2-2.5-6.1l0.1-0.6c0.7-2.9,2.9-4.8,5-4.3l63.1,15.1c2.1,0.5,4.3-1.4,5-4.3l0.1-0.6c0.7-2.9-0.4-5.6-2.5-6.1
			l-30.1-7.2c-2.1-0.5-3.2-3.2-2.5-6.1l0.1-0.6c0.7-2.9,2.9-4.8,5-4.3l45.9,11c2.1,0.5,4.3-1.4,5-4.3l0.1-0.6
			c0.7-2.9-0.4-5.7-2.5-6.2l-71.5-17.2c-2.1-0.5-3.2-3.3-2.5-6.2l0.1-0.5c0.7-2.9,2.9-4.9,5-4.4l39.5,9.4c2.1,0.5,4.3-1.5,5-4.4l0,0
			c0.7-2.8,3-4.8,5.1-4.3l18.9,4.5c2.1,0.5,4.3-1.5,5-4.4v-0.2c0.7-2.9-0.4-5.7-2.5-6.2l-46.3-10.9c-0.8-2.2-1.6-4.3-2.4-6.5
			c0.7-2.9-0.4-5.7-2.5-6.2l-19.3-4.6c-2.1-0.5-3.2-3.3-2.5-6.2l0.1-0.5c0.7-2.9,2.9-4.9,5-4.4l66.5,15.9c2.1,0.5,4.3-1.5,5-4.4
			l0.1-0.5c0.7-2.9-0.4-5.7-2.5-6.2l-33.4-8c-2.1-0.5-3.2-3.3-2.5-6.2l0.1-0.5c0.7-2.9,2.9-4.9,5-4.4l23.6,5.6
			c2.1,0.5,4.3-1.5,5-4.4l0.1-0.5c0.7-2.9-0.4-5.7-2.5-6.2l-49.3-11.6c-2.1-0.5-3.2-3.3-2.5-6.2l0.1-0.5c0.7-2.9,2.9-4.9,5-4.4
			l39.5,9.4c2.1,0.5,4.3-1.5,5-4.4l0,0c0.7-2.9,2.9-4.9,5-4.4c13.7,3.3,27.5,6.6,41.2,9.8L-214.1,709.3z"/>
	</g>
	<g>
		<defs>
			<path id="SVGID_5_" d="M29.2,991.4c-62.9-9.6-123.5-29.6-123.5-29.6c-12.9-5.2-33-14.5-59.9-12.5c-25.1,1.8-28.3,11.3-58.6,12.5
				c-14.4,0.6-19.1-1.4-50.2-1.4c-17.6,0-26.4,0-29.6,1.4c-20.2,8.6-37.6,37.8-43.5,53.9c-0.8,2.1-3.7,10.6-11.3,15.6
				c-1.9,1.3-6.3,4.2-9.7,2.8c-6.1-2.7-6.3-19.3-4.5-30.6c3.3-20.7,17.7-36.1,46.4-66c17.5-18.3,21.8-20.4,25.8-21.6
				c17.5-5.3,28.5,6.3,41.2-2.8c5.1-3.6,4.5-6.3,16.1-18.1c8.1-8.2,13.3-11,12.9-11.8c-0.8-1.7-18.8,11-39.3,12.7
				c-18.5,1.6-48-4.9-62.5-29.8c-13.9-23.9-8.6-55.6,10.2-74.9c23-23.7,59.3-21.6,82.9-8c30.1,17.4,35.2,51,35.8,55.5
				c5-2.9,12.6-6.8,22.3-9.3c22.2-5.7,41.2-0.5,69.1,9.3c0,0,128.9,45,140.7,46.8L29.2,991.4z"/>
		</defs>
		<clipPath id="SVGID_6_">
			<use xlink:href="#SVGID_5_"  style="overflow:visible;"/>
		</clipPath>
		<path id="XMLID_16_" class="st5" d="M-141.1,726.8l-83.6,349.7l-73-17.5c-15.6-3.7-31.2-7.5-46.8-11.2c-0.2,0-1.3-0.3-1.8-2.1
			c-0.3-1.1-0.3-2.5,0-3.9l0.1-0.5c0.7-2.9,2.6-4.9,4.3-4.5l8.6,2.1c1.7,0.4,3.6-1.6,4.3-4.5l0.1-0.3c0.7-2.9-0.1-5.6-1.8-6l-37.3-9
			c-1.7-0.4-2.5-3.1-1.8-6l0.1-0.5c0.7-2.9,2.6-4.9,4.3-4.5l50.8,12.2c1.7,0.4,3.6-1.6,4.3-4.5l0.1-0.5c0.7-2.9-0.1-5.6-1.8-6
			l-24.2-5.8c-1.7-0.4-2.5-3.1-1.8-6l0.1-0.5c0.7-2.9,2.6-4.9,4.3-4.5l36.9,8.8c1.7,0.4,3.6-1.6,4.3-4.5l0.1-0.5
			c0.7-2.9-0.1-5.6-1.8-6l-57.8-13.8c-1.7-0.4-2.5-3.1-1.8-6l0.1-0.5c0.7-2.9,2.6-4.9,4.3-4.5l31.8,7.6c1.7,0.4,3.6-1.6,4.3-4.5l0,0
			c0.7-2.9,2.6-4.9,4.3-4.5l15.2,3.6c1.7,0.4,3.6-1.6,4.3-4.5V963c0.7-2.9-0.1-5.6-1.8-6l-37.3-8.9c-1.7-0.4-2.5-3.1-1.8-6l0.1-0.3
			c0.7-2.9-0.1-5.6-1.8-6l-15.5-3.7c-1.7-0.4-2.5-3.1-1.8-6l0.1-0.6c0.7-2.9,2.6-4.9,4.3-4.5l53.6,12.8c1.7,0.4,3.6-1.6,4.3-4.5
			l0.1-0.6c0.7-2.9-0.1-5.5-1.8-5.9l-27-6.4c-1.7-0.4-2.5-3.1-1.8-5.9l0.1-0.6c0.7-2.9,2.6-4.9,4.3-4.5l19.1,4.6
			c1.7,0.4,3.6-1.6,4.3-4.5l0.1-0.6c0.7-2.9-0.1-5.5-1.8-5.9l-39.9-9.5c-1.7-0.4-2.5-3.1-1.8-5.9l0.1-0.6c0.7-2.9,2.6-4.9,4.3-4.5
			l62,14.8c1.7,0.4,3.6-1.6,4.3-4.5l0,0c0.7-2.9-0.1-5.5-1.8-5.9l-39-9.3c-1.7-0.4-2.5-3.1-1.8-5.9l0.1-0.6c0.7-2.9,2.6-4.9,4.3-4.5
			l22.1,5.3c1.7,0.4,3.6-1.6,4.3-4.5l0.1-0.4c0.7-2.9-0.1-5.5-1.8-5.9l-50.9-12.2c-1.7-0.4-2.5-3.1-1.8-5.9l0.1-0.6
			c0.7-2.9,2.6-4.9,4.3-4.5l50.9,12.2c1.7,0.4,3.6-1.6,4.3-4.5l0.1-0.6c0.7-2.9-0.1-5.5-1.8-5.9l-24.3-5.8c-1.7-0.4-2.5-3.1-1.8-5.9
			l0.8-1.4c0.7-2.9,2.6-4.9,4.3-4.5l37,8.8c1.7,0.4,3.6-1.6,4.3-4.5l0.1-0.6c0.7-2.9-0.1-5.6-1.8-6l-57.8-13.8
			c-1.7-0.4-2.5-3.1-1.8-6l0.1-0.5c0.7-2.9,2.6-4.9,4.3-4.5l31.8,7.6c1.7,0.4,3.6-1.6,4.3-4.5l0,0c0.7-2.9,2.6-4.9,4.3-4.5l15.2,3.6
			c1.7,0.4,3.6-1.6,4.3-4.5v-0.2c0.7-2.9-0.1-5.6-1.8-6l-37.2-8.9c-0.6-2.1-1.1-4.2-1.7-6.3c0.7-2.9-0.1-5.6-1.8-6l-15.5-3.7
			c-1.7-0.4-2.5-3.1-1.8-6l0.1-0.5c0.7-2.9,2.6-4.9,4.3-4.5l53.5,12.8c1.7,0.4,3.6-1.6,4.3-4.5l0.1-0.5c0.7-2.9-0.1-5.6-1.8-6
			l-26.9-6.4c-1.7-0.4-2.5-3.1-1.8-6l0.1-0.5c0.7-2.9,2.6-4.9,4.3-4.5l19,4.5c1.7,0.4,3.6-1.6,4.3-4.5l0.1-0.5
			c0.7-2.9-0.1-5.6-1.8-6l-39.6-9.7c-1.7-0.4-2.5-3.1-1.8-6l0.1-0.5c0.7-2.9,2.6-4.9,4.3-4.5l31.8,7.6c1.7,0.4,3.6-1.6,4.3-4.5l0,0
			c0.7-2.9,2.6-4.9,4.3-4.5c11.1,2.6,22.1,5.3,33.2,7.9L-141.1,726.8z"/>
	</g>
	<g>
		<defs>
			<path id="SVGID_7_" d="M29.2,991.4c-62.9-9.6-123.5-29.6-123.5-29.6c-12.9-5.2-33-14.5-59.9-12.5c-25.1,1.8-28.3,11.3-58.6,12.5
				c-14.4,0.6-19.1-1.4-50.2-1.4c-17.6,0-26.4,0-29.6,1.4c-20.2,8.6-37.6,37.8-43.5,53.9c-0.8,2.1-3.7,10.6-11.3,15.6
				c-1.9,1.3-6.3,4.2-9.7,2.8c-6.1-2.7-6.3-19.3-4.5-30.6c3.3-20.7,17.7-36.1,46.4-66c17.5-18.3,21.8-20.4,25.8-21.6
				c17.5-5.3,28.5,6.3,41.2-2.8c5.1-3.6,4.5-6.3,16.1-18.1c8.1-8.2,13.3-11,12.9-11.8c-0.8-1.7-18.8,11-39.3,12.7
				c-18.5,1.6-48-4.9-62.5-29.8c-13.9-23.9-8.6-55.6,10.2-74.9c23-23.7,59.3-21.6,82.9-8c30.1,17.4,35.2,51,35.8,55.5
				c5-2.9,12.6-6.8,22.3-9.3c22.2-5.7,41.2-0.5,69.1,9.3c0,0,128.9,45,140.7,46.8L29.2,991.4z"/>
		</defs>
		<clipPath id="SVGID_8_">
			<use xlink:href="#SVGID_7_"  style="overflow:visible;"/>
		</clipPath>
		<path id="XMLID_15_" class="st6" d="M-64.4,745.1l-83.6,349.7l-73-17.5c-15.6-3.7-31.2-7.5-46.8-11.2c-0.2,0-1.3-0.3-1.8-2.1
			c-0.3-1.1-0.3-2.5,0-3.9l0.1-0.5c0.7-2.9,2.6-4.9,4.3-4.5l8.6,2.1c1.7,0.4,3.6-1.6,4.3-4.5l0.1-0.3c0.7-2.9-0.1-5.6-1.8-6
			l-37.3-8.9c-1.7-0.4-2.5-3.1-1.8-6l0.1-0.5c0.7-2.9,2.6-4.9,4.3-4.5l50.8,12.2c1.7,0.4,3.6-1.6,4.3-4.5l0.1-0.5
			c0.7-2.9-0.1-5.6-1.8-6l-24.2-5.8c-1.7-0.4-2.5-3.1-1.8-6l0.1-0.5c0.7-2.9,2.6-4.9,4.3-4.5l36.9,8.8c1.7,0.4,3.6-1.6,4.3-4.5
			l0.1-0.5c0.7-2.9-0.1-5.6-1.8-6l-57.6-14c-1.7-0.4-2.5-3.1-1.8-6l0.1-0.5c0.7-2.9,2.6-4.9,4.3-4.5l31.8,7.6
			c1.7,0.4,3.6-1.6,4.3-4.5l0,0c0.7-2.9,2.6-4.9,4.3-4.5l15.2,3.6c1.7,0.4,3.6-1.6,4.3-4.5v-0.2c0.7-2.9-0.1-5.6-1.8-6l-37.3-8.9
			c-1.7-0.4-2.5-3.1-1.8-6l0.1-0.3c0.7-2.9-0.1-5.6-1.8-6l-15.5-3.7c-1.7-0.4-2.5-3.1-1.8-6l0.1-0.6c0.7-2.9,2.6-4.9,4.3-4.5
			l53.6,12.8c1.7,0.4,3.6-1.6,4.3-4.5l0.1-0.6c0.7-2.9-0.1-5.5-1.8-5.9l-27-6.4c-1.7-0.4-2.5-3.1-1.8-5.9l0.1-0.6
			c0.7-2.9,2.6-4.9,4.3-4.5l19.1,4.6c1.7,0.4,3.6-1.6,4.3-4.5l0.1-0.6c0.7-2.9-0.1-5.5-1.8-5.9l-39.9-9.5c-1.7-0.4-2.5-3.1-1.8-5.9
			l0.1-0.6c0.7-2.9,2.6-4.9,4.3-4.5l62,14.8c1.7,0.4,3.6-1.6,4.3-4.5l0,0c0.7-2.9-0.1-5.5-1.8-5.9l-39-9.3c-1.7-0.4-2.5-3.1-1.8-5.9
			l0.1-0.6c0.7-2.9,2.6-4.9,4.3-4.5l22.1,5.3c1.7,0.4,3.6-1.6,4.3-4.5l0.1-0.4c0.7-2.9-0.1-5.5-1.8-5.9l-50.9-12.2
			c-1.7-0.4-2.5-3.1-1.8-5.9l0.1-0.6c0.7-2.9,2.6-4.9,4.3-4.5l50.9,12.2c1.7,0.4,3.6-1.6,4.3-4.5l0.1-0.6c0.7-2.9-0.1-5.5-1.8-5.9
			l-24.3-5.8c-1.7-0.4-2.5-3.1-1.8-5.9l0.1-0.6c0.7-2.9,2.6-4.9,4.3-4.5l37,8.8c1.7,0.4,3.6-1.6,4.3-4.5l0.1-0.6
			c0.7-2.9-0.1-5.6-1.8-6l-57.8-13.8c-1.7-0.4-2.5-3.1-1.8-6l0.1-0.5c0.7-2.9,2.6-4.9,4.3-4.5l31.8,7.6c1.7,0.4,3.6-1.6,4.3-4.5l0,0
			c0.7-2.9,2.6-4.9,4.3-4.5l15.2,3.6c1.7,0.4,3.6-1.6,4.3-4.5v-0.2c0.7-2.9-0.1-5.6-1.8-6l-37.3-8.9c-0.6-2.1-1.1-4.2-1.7-6.3
			c0.7-2.9-0.1-5.6-1.8-6l-15.5-3.7c-1.7-0.4-2.5-3.1-1.8-6l0.1-0.5c0.7-2.9,2.6-4.9,4.3-4.5l53.5,12.8c1.7,0.4,3.6-1.6,4.3-4.5
			l0.1-0.5c0.7-2.9-0.1-5.6-1.8-6l-26.9-6.4c-1.7-0.4-2.5-3.1-1.8-6l0.1-0.5c0.7-2.9,2.6-4.9,4.3-4.5l19,4.5
			c1.7,0.4,3.6-1.6,4.3-4.5l0.1-0.5c0.7-2.9-0.1-5.6-1.8-6l-39.8-9.5c-1.7-0.4-2.5-3.1-1.8-6l0.9-1.4c0.7-2.9,2.6-4.9,4.3-4.5
			l31.8,7.6c1.7,0.4,3.6-1.6,4.3-4.5l0,0c0.7-2.9,2.6-4.9,4.3-4.5c11.1,2.6,22.1,5.3,33.2,7.9L-64.4,745.1z"/>
	</g>
	<g>
		<defs>
			<path id="SVGID_9_" d="M29.2,991.4c-62.9-9.6-123.5-29.6-123.5-29.6c-12.9-5.2-33-14.5-59.9-12.5c-25.1,1.8-28.3,11.3-58.6,12.5
				c-14.4,0.6-19.1-1.4-50.2-1.4c-17.6,0-26.4,0-29.6,1.4c-20.2,8.6-37.6,37.8-43.5,53.9c-0.8,2.1-3.7,10.6-11.3,15.6
				c-1.9,1.3-6.3,4.2-9.7,2.8c-6.1-2.7-6.3-19.3-4.5-30.6c3.3-20.7,17.7-36.1,46.4-66c17.5-18.3,21.8-20.4,25.8-21.6
				c17.5-5.3,28.5,6.3,41.2-2.8c5.1-3.6,4.5-6.3,16.1-18.1c8.1-8.2,13.3-11,12.9-11.8c-0.8-1.7-18.8,11-39.3,12.7
				c-18.5,1.6-48-4.9-62.5-29.8c-13.9-23.9-8.6-55.6,10.2-74.9c23-23.7,59.3-21.6,82.9-8c30.1,17.4,35.2,51,35.8,55.5
				c5-2.9,12.6-6.8,22.3-9.3c22.2-5.7,41.2-0.5,69.1,9.3c0,0,128.9,45,140.7,46.8L29.2,991.4z"/>
		</defs>
		<clipPath id="SVGID_10_">
			<use xlink:href="#SVGID_9_"  style="overflow:visible;"/>
		</clipPath>
		<path id="XMLID_14_" class="st7" d="M8.7,762.6L-75,1112.3l-73-17.5c-15.6-3.7-31.2-7.5-46.8-11.2c-0.2,0-1.3-0.3-1.8-2.1
			c-0.3-1.1-0.3-2.5,0-3.9l0.1-0.5c0.7-2.9,2.6-4.9,4.3-4.5l8.6,2.1c1.7,0.4,3.6-1.6,4.3-4.5l0.1-0.3c0.7-2.9-0.1-5.6-1.8-6
			l-37.3-8.9c-1.7-0.4-2.5-3.1-1.8-6l0.1-0.5c0.7-2.9,2.6-4.9,4.3-4.5l50.8,12.2c1.7,0.4,3.6-1.6,4.3-4.5l0.1-0.5
			c0.7-2.9-0.1-5.6-1.8-6l-24.2-5.8c-1.7-0.4-2.5-3.1-1.8-6l0.1-0.5c0.7-2.9,2.6-4.9,4.3-4.5l36.9,8.8c1.7,0.4,3.6-1.6,4.3-4.5
			l0.1-0.5c0.7-2.9-0.1-5.6-1.8-6l-57.6-14.1c-1.7-0.4-2.5-3.1-1.8-6l0.1-0.5c0.7-2.9,2.6-4.9,4.3-4.5l31.8,7.6
			c1.7,0.4,3.6-1.6,4.3-4.5l0,0c0.7-2.9,2.6-4.9,4.3-4.5l15.2,3.6c1.7,0.4,3.6-1.6,4.3-4.5v-0.2c0.7-2.9-0.1-5.6-1.8-6l-37.3-8.9
			c-1.7-0.4-2.5-3.1-1.8-6l0.1-0.3c0.7-2.9-0.1-5.6-1.8-6l-15.5-3.7c-1.7-0.4-2.5-3.1-1.8-6l0.1-0.6c0.7-2.9,2.6-4.9,4.3-4.5
			l53.6,12.8c1.7,0.4,3.6-1.6,4.3-4.5l0.1-0.6c0.7-2.9-0.1-5.5-1.8-5.9l-27-6.4c-1.7-0.4-2.5-3.1-1.8-5.9l0.1-0.6
			c0.7-2.9,2.6-4.9,4.3-4.5l19.1,4.6c1.7,0.4,3.6-1.6,4.3-4.5l0.1-0.6c0.7-2.9-0.1-5.5-1.8-5.9l-39.9-9.5c-1.7-0.4-2.5-3.1-1.8-5.9
			l0.1-0.6c0.7-2.9,2.6-4.9,4.3-4.5l62,14.8c1.7,0.4,3.6-1.6,4.3-4.5l0,0c0.7-2.9-0.1-5.5-1.8-5.9l-39-9.3c-1.7-0.4-2.5-3.1-1.8-5.9
			l0.1-0.6c0.7-2.9,2.6-4.9,4.3-4.5l22.1,5.3c1.7,0.4,3.6-1.6,4.3-4.5l0.1-0.4c0.7-2.9-0.1-5.5-1.8-5.9l-50.9-12.2
			c-1.7-0.4-2.5-3.1-1.8-5.9l0.1-0.6c0.7-2.9,2.6-4.9,4.3-4.5l50.9,12.2c1.7,0.4,3.6-1.6,4.3-4.5l0.1-0.6c0.7-2.9-0.1-5.5-1.8-5.9
			l-24.3-5.8c-1.7-0.4-2.5-3.1-1.8-5.9l0.1-0.6c0.7-2.9,2.6-4.9,4.3-4.5l37,8.8c1.7,0.4,3.6-1.6,4.3-4.5l0.1-0.6
			c0.7-2.9-0.1-5.6-1.8-6l-57.8-13.8c-1.7-0.4-2.5-3.1-1.8-6l0.1-0.5c0.7-2.9,2.6-4.9,4.3-4.5l31.8,7.6c1.7,0.4,3.6-1.6,4.3-4.5l0,0
			c0.7-2.9,2.6-4.9,4.3-4.5l15.2,3.6c1.7,0.4,3.6-1.6,4.3-4.5v-0.2c0.7-2.9-0.1-5.6-1.8-6l-37.3-8.9c-0.6-2.1-1.1-4.2-1.7-6.3
			c0.7-2.9-0.1-5.6-1.8-6l-15.5-3.7c-1.7-0.4-2.5-3.1-1.8-6l0.1-0.5c0.7-2.9,2.6-4.9,4.3-4.5l53.5,12.8c1.7,0.4,3.6-1.6,4.3-4.5
			l0.1-0.5c0.7-2.9-0.1-5.6-1.8-6l-26.9-6.4c-1.7-0.4-2.5-3.1-1.8-6l0.1-0.5c0.7-2.9,2.6-4.9,4.3-4.5l19,4.5
			c1.7,0.4,3.6-1.6,4.3-4.5l0.1-0.5c0.7-2.9-0.1-5.6-1.8-6l-39-10.3c-1.7-0.4-2.5-3.1-1.8-6l0.1-0.5c0.7-2.9,2.6-4.9,4.3-4.5
			l31.8,7.6c1.7,0.4,3.6-1.6,4.3-4.5l0,0c0.7-2.9,2.6-4.9,4.3-4.5c11.1,2.6,22.1,5.3,33.2,7.9L8.7,762.6z"/>
	</g>
	<g>
		<defs>
			<path id="SVGID_11_" d="M29.2,991.4c-62.9-9.6-123.5-29.6-123.5-29.6c-12.9-5.2-33-14.5-59.9-12.5c-25.1,1.8-28.3,11.3-58.6,12.5
				c-14.4,0.6-19.1-1.4-50.2-1.4c-17.6,0-26.4,0-29.6,1.4c-20.2,8.6-37.6,37.8-43.5,53.9c-0.8,2.1-3.7,10.6-11.3,15.6
				c-1.9,1.3-6.3,4.2-9.7,2.8c-6.1-2.7-6.3-19.3-4.5-30.6c3.3-20.7,17.7-36.1,46.4-66c17.5-18.3,21.8-20.4,25.8-21.6
				c17.5-5.3,28.5,6.3,41.2-2.8c5.1-3.6,4.5-6.3,16.1-18.1c8.1-8.2,13.3-11,12.9-11.8c-0.8-1.7-18.8,11-39.3,12.7
				c-18.5,1.6-48-4.9-62.5-29.8c-13.9-23.9-8.6-55.6,10.2-74.9c23-23.7,59.3-21.6,82.9-8c30.1,17.4,35.2,51,35.8,55.5
				c5-2.9,12.6-6.8,22.3-9.3c22.2-5.7,41.2-0.5,69.1,9.3c0,0,128.9,45,140.7,46.8L29.2,991.4z"/>
		</defs>
		<clipPath id="SVGID_12_">
			<use xlink:href="#SVGID_11_"  style="overflow:visible;"/>
		</clipPath>
		<path id="XMLID_13_" class="st8" d="M84.2,780.6L0.6,1130.3l-73-17.5c-15.6-3.7-31.2-7.5-46.8-11.2c-0.2,0-1.3-0.3-1.8-2.1
			c-0.3-1.1-0.3-2.5,0-3.9l0.1-0.5c0.7-2.9,2.6-4.9,4.3-4.5l8.6,2.1c1.7,0.4,3.6-1.6,4.3-4.5l0.1-0.3c0.7-2.9-0.1-5.6-1.8-6
			l-37.3-8.9c-1.7-0.4-2.5-3.1-1.8-6l0.1-0.5c0.7-2.9,2.6-4.9,4.3-4.5l50.8,12.2c1.7,0.4,3.6-1.6,4.3-4.5l0.1-0.5
			c0.7-2.9-0.1-5.6-1.8-6l-24.2-5.8c-1.7-0.4-2.5-3.1-1.8-6l0.1-0.5c0.7-2.9,2.6-4.9,4.3-4.5l36.9,8.8c1.7,0.4,3.6-1.6,4.3-4.5
			l0.1-0.5c0.7-2.9-0.1-5.6-1.8-6l-57.8-13.8c-1.7-0.4-2.5-3.1-1.8-6l0.1-0.5c0.7-2.9,2.6-4.9,4.3-4.5l31.8,7.6
			c1.7,0.4,3.6-1.6,4.3-4.5l0,0c0.7-2.9,2.6-4.9,4.3-4.5l15.2,3.6c1.7,0.4,3.6-1.6,4.3-4.5v-0.2c0.7-2.9-0.1-5.6-1.8-6l-37.3-8.9
			c-1.7-0.4-2.5-3.1-1.8-6l0.1-0.3c0.7-2.9-0.1-5.6-1.8-6l-15.5-3.7c-1.7-0.4-2.5-3.1-1.8-6l0.1-0.6c0.7-2.9,2.6-4.9,4.3-4.5
			l53.6,12.8c1.7,0.4,3.6-1.6,4.3-4.5l0.1-0.6c0.7-2.9-0.1-5.5-1.8-5.9l-27-6.4c-1.7-0.4-2.5-3.1-1.8-5.9l0.1-0.6
			c0.7-2.9,2.6-4.9,4.3-4.5l19.1,4.6c1.7,0.4,3.6-1.6,4.3-4.5l0.1-0.6c0.7-2.9-0.1-5.5-1.8-5.9l-39.9-9.5c-1.7-0.4-2.5-3.1-1.8-5.9
			l0.1-0.6c0.7-2.9,2.6-4.9,4.3-4.5l62,14.8c1.7,0.4,3.6-1.6,4.3-4.5l0,0c0.7-2.9-0.1-5.5-1.8-5.9l-39-9.3c-1.7-0.4-2.5-3.1-1.8-5.9
			l0.1-0.6c0.7-2.9,2.6-4.9,4.3-4.5l22.1,5.3c1.7,0.4,3.6-1.6,4.3-4.5l0.1-0.4c0.7-2.9-0.1-5.5-1.8-5.9l-50.4-12.8
			c-1.7-0.4-2.5-3.1-1.8-5.9l0.1-0.6c0.7-2.9,2.6-4.9,4.3-4.5l50.9,12.2c1.7,0.4,3.6-1.6,4.3-4.5l0.1-0.6c0.7-2.9-0.1-5.5-1.8-5.9
			l-24.3-5.8c-1.7-0.4-2.5-3.1-1.8-5.9l0.1-0.6c0.7-2.9,2.6-4.9,4.3-4.5l37,8.8c1.7,0.4,3.6-1.6,4.3-4.5l0.1-0.6
			c0.7-2.9-0.1-5.6-1.8-6l-57.8-13.8c-1.7-0.4-2.5-3.1-1.8-6l0.1-0.5c0.7-2.9,2.6-4.9,4.3-4.5l31.8,7.6c1.7,0.4,3.6-1.6,4.3-4.5l0,0
			c0.7-2.9,2.6-4.9,4.3-4.5l15.2,3.6c1.7,0.4,3.6-1.6,4.3-4.5V842c0.7-2.9-0.1-5.6-1.8-6l-37.3-8.9c-0.6-2.1-1.1-4.2-1.7-6.3
			c0.7-2.9-0.1-5.6-1.8-6l-15.5-3.7c-1.7-0.4-2.5-3.1-1.8-6l0.1-0.5c0.7-2.9,2.6-4.9,4.3-4.5l53.5,12.8c1.7,0.4,3.6-1.6,4.3-4.5
			l0.1-0.5c0.7-2.9-0.1-5.6-1.8-6l-26.9-6.4c-1.7-0.4-2.5-3.1-1.8-6l0.1-0.5c0.7-2.9,2.6-4.9,4.3-4.5l19,4.5
			c1.7,0.4,3.6-1.6,4.3-4.5l0.1-0.5c0.7-2.9-0.1-5.6-1.8-6l-39.8-9.5c-1.7-0.4-2.5-3.1-1.8-6l0.1-0.5c0.7-2.9,2.6-4.9,4.3-4.5
			l31.8,7.6c1.7,0.4,3.6-1.6,4.3-4.5l0,0c0.7-2.9,2.6-4.9,4.3-4.5c11.1,2.6,22.1,5.3,33.2,7.9L84.2,780.6z"/>
	</g>
	<g>
		<defs>
			<path id="SVGID_13_" d="M29.2,991.4c-62.9-9.6-123.5-29.6-123.5-29.6c-12.9-5.2-33-14.5-59.9-12.5c-25.1,1.8-28.3,11.3-58.6,12.5
				c-14.4,0.6-19.1-1.4-50.2-1.4c-17.6,0-26.4,0-29.6,1.4c-20.2,8.6-37.6,37.8-43.5,53.9c-0.8,2.1-3.7,10.6-11.3,15.6
				c-1.9,1.3-6.3,4.2-9.7,2.8c-6.1-2.7-6.3-19.3-4.5-30.6c3.3-20.7,17.7-36.1,46.4-66c17.5-18.3,21.8-20.4,25.8-21.6
				c17.5-5.3,28.5,6.3,41.2-2.8c5.1-3.6,4.5-6.3,16.1-18.1c8.1-8.2,13.3-11,12.9-11.8c-0.8-1.7-18.8,11-39.3,12.7
				c-18.5,1.6-48-4.9-62.5-29.8c-13.9-23.9-8.6-55.6,10.2-74.9c23-23.7,59.3-21.6,82.9-8c30.1,17.4,35.2,51,35.8,55.5
				c5-2.9,12.6-6.8,22.3-9.3c22.2-5.7,41.2-0.5,69.1,9.3c0,0,128.9,45,140.7,46.8L29.2,991.4z"/>
		</defs>
		<clipPath id="SVGID_14_">
			<use xlink:href="#SVGID_13_"  style="overflow:visible;"/>
		</clipPath>
		<path id="XMLID_12_" class="st9" d="M157.3,798.1l-83.6,349.7l-73-17.5c-15.6-3.7-31.2-7.5-46.8-11.2c-0.2,0-1.3-0.3-1.8-2.1
			c-0.3-1.1-0.3-2.5,0-3.9l0.1-0.5c0.7-2.9,2.6-4.9,4.3-4.5l8.6,2.1c1.7,0.4,3.6-1.6,4.3-4.5l0.1-0.3c0.7-2.9-0.1-5.6-1.8-6
			l-37.3-8.9c-1.7-0.4-2.5-3.1-1.8-6l0.1-0.5c0.7-2.9,2.6-4.9,4.3-4.5l50.8,12.2c1.7,0.4,3.6-1.6,4.3-4.5l0.1-0.5
			c0.7-2.9-0.1-5.6-1.8-6l-24.2-5.8c-1.7-0.4-2.5-3.1-1.8-6l0.1-0.5c0.7-2.9,2.6-4.9,4.3-4.5l36.9,8.8c1.7,0.4,3.6-1.6,4.3-4.5
			l0.1-0.5c0.7-2.9-0.1-5.6-1.8-6l-57.8-13.8c-1.7-0.4-2.5-3.1-1.8-6l0.1-0.5c0.7-2.9,2.6-4.9,4.3-4.5l31.8,7.6
			c1.7,0.4,3.6-1.6,4.3-4.5l0,0c0.7-2.9,2.6-4.9,4.3-4.5l15.2,3.6c1.7,0.4,3.6-1.6,4.3-4.5v-0.2c0.7-2.9-0.1-5.6-1.8-6l-37.3-8.9
			c-1.7-0.4-2.5-3.1-1.8-6l0.1-0.3c0.7-2.9-0.1-5.6-1.8-6l-15.5-3.7c-1.7-0.4-2.5-3.1-1.8-6l0.1-0.6c0.7-2.9,2.6-4.9,4.3-4.5
			l53.6,12.8c1.7,0.4,3.6-1.6,4.3-4.5l0.1-0.6c0.7-2.9-0.1-5.5-1.8-5.9l-27-6.4c-1.7-0.4-2.5-3.1-1.8-5.9l0.1-0.6
			c0.7-2.9,2.6-4.9,4.3-4.5l19.1,4.6c1.7,0.4,3.6-1.6,4.3-4.5l0.1-0.6c0.7-2.9-0.1-5.5-1.8-5.9l-39.9-9.5c-1.7-0.4-2.5-3.1-1.8-5.9
			l0.1-0.6c0.7-2.9,2.6-4.9,4.3-4.5l62,14.8c1.7,0.4,3.6-1.6,4.3-4.5l0,0c0.7-2.9-0.1-5.5-1.8-5.9l-39-9.3c-1.7-0.4-2.5-3.1-1.8-5.9
			l0.1-0.6c0.7-2.9,2.6-4.9,4.3-4.5l22.1,5.3c1.7,0.4,3.6-1.6,4.3-4.5l0.1-0.4c0.7-2.9-0.1-5.5-1.8-5.9l-50.9-12.2
			c-1.7-0.4-2.5-3.1-1.8-5.9l0.1-0.6c0.7-2.9,2.6-4.9,4.3-4.5l50.9,12.2c1.7,0.4,3.6-1.6,4.3-4.5l0.1-0.6c0.7-2.9-0.1-5.5-1.8-5.9
			l-24.3-5.8c-1.7-0.4-2.5-3.1-1.8-5.9l0.1-0.6c0.7-2.9,2.6-4.9,4.3-4.5l37,8.8c1.7,0.4,3.6-1.6,4.3-4.5l0.1-0.6
			c0.7-2.9-0.1-5.6-1.8-6l-57.8-13.8c-1.7-0.4-2.5-3.1-1.8-6l0.1-0.5c0.7-2.9,2.6-4.9,4.3-4.5l31.8,7.6c1.7,0.4,3.6-1.6,4.3-4.5l0,0
			c0.7-2.9,2.6-4.9,4.3-4.5l15.2,3.6c1.7,0.4,3.6-1.6,4.3-4.5v-0.2c0.7-2.9-0.1-5.6-1.8-6L12,844.3c-0.6-2.1-1.1-4.2-1.7-6.3
			c0.7-2.9-0.1-5.6-1.8-6L-7,828.3c-1.7-0.4-2.5-3.1-1.8-6l0.1-0.5c0.7-2.9,2.6-4.9,4.3-4.5l53.5,12.8c1.7,0.4,3.6-1.6,4.3-4.5
			l0.1-0.5c0.7-2.9-0.1-5.6-1.8-6l-26.9-6.4c-1.7-0.4-2.5-3.1-1.8-6l0.1-0.5c0.7-2.9,2.6-4.9,4.3-4.5l19,4.5
			c1.7,0.4,3.6-1.6,4.3-4.5l0.1-0.5c0.7-2.9-0.1-5.6-1.8-6l-39.8-9.5c-1.7-0.4-2.5-3.1-1.8-6l0.1-0.5c0.7-2.9,2.6-4.9,4.3-4.5
			l31.8,7.6c1.7,0.4,3.6-1.6,4.3-4.5l0,0c0.7-2.9,2.6-4.9,4.3-4.5c11.1,2.6,22.1,5.3,33.2,7.9L157.3,798.1z"/>
	</g>
</g>
<path id="XMLID_50_" class="st1" d="M438.4,1060.3v-0.8c0-9.4-7.6-17-17-17h-26.6c-9.4,0-17-7.6-17-17v-0.5c0-9.4-7.6-17-17-17H279
	c-9.4,0-17,7.6-17,17v0.5c0,9.4-7.6,17-17,17h-25.7c-9.4,0-17,7.6-17,17v0.3c0,9.4-7.6,17-17,17h-36.6c-9.4,0-17,7.6-17,17v0.5
	c0,9.4-7.6,17-17,17H12.9c-9.4,0-17,7.6-17,17v0.8c0,9.4,7.6,17,17,17h408.6c9.4,0,17-7.6,17-17v-0.8c0-9.4-7.6-17-17-17h-11.6
	c-9.4,0-17-7.6-17-17l0,0c0-9.4,7.6-17,17-17h11.6C430.8,1077.3,438.4,1069.7,438.4,1060.3z"/>
</svg>
