<?xml version="1.0" encoding="utf-8"?>
<!-- Generator: Adobe Illustrator 19.0.0, SVG Export Plug-In . SVG Version: 6.00 Build 0)  -->
<svg version="1.1" id="Layer_1" xmlns="http://www.w3.org/2000/svg" xmlns:xlink="http://www.w3.org/1999/xlink" x="0px" y="0px"
	 viewBox="0 0 700 600" style="enable-background:new 0 0 700 600;" xml:space="preserve">
<style type="text/css">
	.st0{clip-path:url(#XMLID_2_);fill:#FFC000;}
	.st1{clip-path:url(#XMLID_2_);fill:#E98F00;}
	.st2{clip-path:url(#XMLID_2_);fill:#E36C00;}
	.st3{clip-path:url(#XMLID_2_);fill:#C65200;}
</style>
<g id="XMLID_56_">
	<defs>
		<path id="XMLID_6_" d="M495.7,381.7c-18.7,30.7-26.5,45.9-30.1,54.2c-0.5,1.1-1.6,3.8-3.9,6.9c-7.1,9.4-17.6,12.1-24.3,14.1
			c-19.1,5.8-39.4,11.7-53.3,25.9c-3.6,3.7-9.2,10.3-18.5,12c-5,0.9-9.4,0.1-12.4-0.8c-13.6,0.5-24.3-5.8-25.7-13
			c-1.9-9.3,11.7-18.4,20.4-21.9c10.2-4.1,19.2-2.9,22.8-2.6c13.5,1,34.1-5.7,64.4-40.8c1.1-8,2.3-16.1,3.4-24.1
			c-12.1-3.5-22.1-5.2-29-6.1c-6.3-0.8-12.5-1.2-20.8-4c-6.2-2-11-4.4-14.1-6.2c3.1-3.2,7.7-8.9,10.4-17.2
			c0.9-2.7,7.2-23.2-5.7-39.5c-11.6-14.6-30.5-14.7-36.5-14.7c-10.7,0-19.1,3.1-24,5.4c1,1.8,2.1,3.5,3.1,5.3
			c21.4-8,43.1-2.3,52,11.6c10.4,16.3-0.7,38-2.7,41.8c-2.7,5.2-6.7,11-24.7,25.2c-11.9,9.4-25.1,18.8-52.1,35.8
			c-21.7,13.8-28.3,17.3-36.5,27.3c-3.8,4.7-10.9,13.4-14.8,26.7c-1.9,6.4-10,33.6,3,47.5c12,12.9,43.9,16.5,50.1,22.6
			c2.7,2.6,4.5,5.9,4.5,5.9c0.7,1.4,1.6,2.9,1.9,4.8c0,0,0.7,4.6-2.2,8.9c-5,7.4-26.5,2.1-31.9,0.7c-10.6-2.7-34.8-9.6-43.4-28.9
			c-3.5-7.9-1.4-11.1-6.6-19.5c0,0-8.4-13.8-9.9-19.3c0-0.1-0.7-2.7-0.7-2.8c0,0,0,0,0,0c0,0,0,0,0,0c-0.5-1.8-1.2-4.5-2-7.8
			c-0.7-2.8-1.7-6.5-3.2-12.2c-4.5-16.4-7.6-26-8.9-30.7c-3.5-12.1-6.6-30.6-3.9-57.6c-43.3,34.2-99.6,32.7-130.2,3
			c-19.6-19.1-31.5-52.6-20.8-84.4c8.7-25.8,30-43.6,52-50.7c35.4-11.4,77.2,3.6,102.9,38.2c35.5-90.2,112.7-145,186.2-138.2
			c44.9,4.1,77.3,30.2,93.3,45.7c19.9-10,24.3-15,24-17.8c0-0.3-0.3-2.2-0.5-5.2c-0.1-1.6-0.3-3.6-0.4-5.9c-0.1-3.1-0.2-6.8,0-11
			c0.2-3.3,0.6-7.1,1.5-11.4c3.2-14.8,10-26,15.6-33.4c-4.5-3.9-11.7-9.5-21.6-14.2c-34.2-15.9-59.5-1.1-79.5-19.3
			c-1.5-1.4-13-12.1-10.7-23c2.3-11.1,17.9-19.7,39.4-20.1c35.5-0.7,61.5,15.6,64.3,17.7c17.3,13.5,25,30.3,28.4,39
			c2.4-1.5,4.9-3,7.4-4.6c-4-9.1-14.3-29.5-36.9-43.7c-17.8-11.3-35.2-13.6-42.4-14.5c-10.4-1.3-19.4-0.8-25.7-0.1
			c-0.2-3-0.4-11.8,5.6-18c3.2-3.4,7.8-5.7,14.9-6.3c48.7-4.5,74.5,22,74.5,22c20.3,20.8,22.4,46.6,22.7,54.1
			c2.8-0.8,7-1.7,12.1-2.1c17-1.4,30.2,4.5,37,7.6c20.2,9.3,32.4,26.9,57.1,62.1c6.2,8.8,10.2,15.2,9.1,23.1
			c-2.1,15.6-22.6,24.7-24.6,25.6c-6.4,2.7-11.8,3.4-14.5,3.9c-10.9,1.3-30.4,3.3-59.2,4c-8.9,8.5-24.2,12.2-26.4,28.8
			c-2.3,17.6,5.1,23.2,6.3,47.2c0.4,8.2,2.2,31.5-10,52.9C527.7,368.5,505.9,378.1,495.7,381.7z M473,458.6
			c-3.7,5-8.4,7.2-16.7,10.9c-9.3,4.1-16.8,7.4-21.7,9.5c-4.2,3.8-8.1,6.3-10.8,7.8c-5.1,2.9-13.7,7.5-23.8,6.3
			c-2.6-0.3-8-1-8.9-3.9c-1.2-3.8,6.2-9.2,9.1-11.3c9.2-6.7,18.7-9.2,30.2-12.2c5.4-1.4,11.4-2.7,19.7-6.1c4.4-1.8,6.6-3.1,8.3-4.3
			c6-4,9.5-8.8,11.4-11.7c2-3.1,2.4-4.7,4.6-10c2.7-6.4,4.9-10.9,9.5-19.9c2.5-4.9,5.9-11.4,10.4-19c-9,26.5-14.8,44.6-17.3,54.7
			C476.7,451.1,475.8,454.8,473,458.6z M274.6,449.1c-3.7,2.5-8.2,6.2-12.6,11.3c-3.4,3.9-5.9,7.7-7.8,11
			c10.4,30.2,12.6,41.6,12.5,46c0,0.5-0.2,5.3-0.2,11.9c0,2.5,0,4.6,0,5.7c6.4,2.6,11.7,4.5,15.2,5.7c10.9,3.8,14.2,4.2,18.3,7.9
			c1.6,1.4,5.5,4.9,7.3,11c1.6,5.4,0.8,10.1,0.2,12.2c2.4,1.8,6.7,4.6,12.6,5.9c2.2,0.5,16,3.7,20.8-3.2c2.3-3.3,2.1-8,0.7-11.6
			c-2.8-7.3-10-7.4-27.5-16.6c-15.4-8.1-20.3-13.5-22.8-16.6c-3.3-4.1-4.9-7.6-6.9-11.9c-8-17.1-9.1-33-9.9-45.3
			C274.3,467,274,458.9,274.6,449.1z"/>
	</defs>
	<clipPath id="XMLID_2_">
		<use xlink:href="#XMLID_6_"  style="overflow:visible;"/>
	</clipPath>
	<path id="XMLID_19_" class="st0" d="M147,8.1l0,578.2H26.3c-25.8,0-51.6,0-77.4,0c-0.3,0-2.1-0.1-3.6-2.6c-0.9-1.6-1.5-3.8-1.5-6.2
		v-0.8c0-4.8,2.2-8.7,5-8.7h14.2c2.8,0,5-3.9,5-8.7v-0.4c0-4.8-2.2-8.7-5-8.7h-61.7c-2.8,0-5-3.9-5-8.7v-0.8c0-4.8,2.2-8.7,5-8.7
		l84,0c2.8,0,5-3.9,5-8.7v-0.8c0-4.8-2.2-8.7-5-8.7h-40c-2.8,0-5-3.9-5-8.7v-0.8c0-4.8,2.2-8.7,5-8.7H6.5c2.8,0,5-3.9,5-8.7l0-0.8
		c0-4.8-2.2-8.7-5-8.7l-95.5,0c-2.8,0-5-3.9-5-8.7v-0.8c0-4.8,2.2-8.7,5-8.7h52.6c2.8,0,5-3.9,5-8.7v0c0-4.8,2.2-8.7,5-8.7h25.2
		c2.8,0,5-3.9,5-8.7l0-0.3c0-4.8-2.2-8.7-5-8.7h-61.7c-2.8,0-5-3.9-5-8.7v-0.6c0-4.8-2.2-8.7-5-8.7l-25.7,0c-2.8,0-5-3.9-5-8.7v-0.9
		c0-4.8,2.2-8.6,5-8.6h88.6c2.7,0,5-3.9,5-8.6l0-1c0-4.8-2.2-8.6-5-8.6l-44.6,0c-2.7,0-5-3.9-5-8.6v-1c0-4.8,2.2-8.6,5-8.6h31.5
		c2.7,0,5-3.9,5-8.6v-1c0-4.8-2.2-8.6-5-8.6h-66c-2.7,0-5-3.9-5-8.6v-1c0-4.8,2.2-8.6,5-8.6H13.4c2.7,0,5-3.9,5-8.6v0
		c0-4.8-2.2-8.6-5-8.6l-64.5,0c-2.7,0-5-3.9-5-8.6v-1c0-4.8,2.2-8.6,5-8.6h36.6c2.7,0,5-3.9,5-8.6v-0.6c0-4.8-2.2-8.6-5-8.6l-84.1,0
		c-2.7,0-5-3.9-5-8.6v-1c0-4.8,2.2-8.6,5-8.6l84.1,0c2.7,0,5-3.9,5-8.6l0-1c0-4.8-2.2-8.6-5-8.6h-40.1c-2.7,0-5-3.9-5-8.6v-1
		c0-4.8,2.2-8.6,5-8.6l61.2,0c2.7,0,5-3.9,5-8.6l0-0.9c0-4.8-2.2-8.7-5-8.7l-95.5,0c-2.8,0-5-3.9-5-8.7v-0.8c0-4.8,2.2-8.7,5-8.7
		l52.6,0c2.8,0,5-3.9,5-8.7v0c0-4.8,2.2-8.7,5-8.7l25.2,0c2.8,0,5-3.9,5-8.7v-0.3c0-4.8-2.2-8.7-5-8.7l-61.7,0
		c-1.7-3.1-3.3-6.2-5-9.3c0-4.8-2.2-8.7-5-8.7h-25.7c-2.8,0-5-3.9-5-8.7v-0.8c0-4.8,2.2-8.7,5-8.7l88.5,0c2.8,0,5-3.9,5-8.7l0-0.8
		c0-4.8-2.2-8.7-5-8.7l-44.5,0c-2.8,0-5-3.9-5-8.7v-0.8c0-4.8,2.2-8.7,5-8.7l31.4,0c2.8,0,5-3.9,5-8.7l0-0.8c0-4.8-2.2-8.7-5-8.7
		l-65.9,0c-2.8,0-5-3.9-5-8.7l0-0.8c0-4.8,2.2-8.7,5-8.7l52.6,0c2.8,0,5-3.9,5-8.7v0c0-4.8,2.2-8.7,5-8.7c18.3,0,36.6,0,54.9,0
		L147,8.1z"/>
	<path id="XMLID_18_" class="st0" d="M267.7,8.1l0,578.2H147c-25.8,0-51.6,0-77.4,0c-0.3,0-2.1-0.1-3.6-2.6
		c-0.9-1.6-1.5-3.8-1.5-6.2v-0.8c0-4.8,2.2-8.7,5-8.7h14.2c2.8,0,5-3.9,5-8.7v-0.4c0-4.8-2.2-8.7-5-8.7H22.1c-2.8,0-5-3.9-5-8.7
		v-0.8c0-4.8,2.2-8.7,5-8.7h84c2.8,0,5-3.9,5-8.7v-0.8c0-4.8-2.2-8.7-5-8.7h-40c-2.8,0-5-3.9-5-8.7l0-0.8c0-4.8,2.2-8.7,5-8.7h61.1
		c2.8,0,5-3.9,5-8.7v-0.8c0-4.8-2.2-8.7-5-8.7l-95.5,0c-2.8,0-5-3.9-5-8.7l0-0.8c0-4.8,2.2-8.7,5-8.7h52.6c2.8,0,5-3.9,5-8.7v0
		c0-4.8,2.2-8.7,5-8.7h25.2c2.8,0,5-3.9,5-8.7v-0.3c0-4.8-2.2-8.7-5-8.7H57.8c-2.8,0-5-3.9-5-8.7v-0.6c0-4.8-2.2-8.7-5-8.7l-25.7,0
		c-2.8,0-5-3.9-5-8.7v-0.9c0-4.8,2.2-8.6,5-8.6l88.6,0c2.7,0,5-3.9,5-8.6v-1c0-4.8-2.2-8.6-5-8.6l-44.6,0c-2.7,0-5-3.9-5-8.6v-1
		c0-4.8,2.2-8.6,5-8.6h31.5c2.7,0,5-3.9,5-8.6v-1c0-4.8-2.2-8.6-5-8.6h-66c-2.7,0-5-3.9-5-8.6v-1c0-4.8,2.2-8.6,5-8.6l102.5,0
		c2.7,0,5-3.9,5-8.6v0c0-4.8-2.2-8.6-5-8.6H69.6c-2.7,0-5-3.9-5-8.6v-1c0-4.8,2.2-8.6,5-8.6h36.6c2.7,0,5-3.9,5-8.6v-0.6
		c0-4.8-2.2-8.6-5-8.6l-84.1,0c-2.7,0-5-3.9-5-8.6l0-1c0-4.8,2.2-8.6,5-8.6l84.1,0c2.7,0,5-3.9,5-8.6v-1c0-4.8-2.2-8.6-5-8.6H66.1
		c-2.7,0-5-3.9-5-8.6v-1c0-4.8,2.2-8.6,5-8.6l61.2,0c2.7,0,5-3.9,5-8.6v-0.9c0-4.8-2.2-8.7-5-8.7l-95.5,0c-2.8,0-5-3.9-5-8.7v-0.8
		c0-4.8,2.2-8.7,5-8.7l52.6,0c2.8,0,5-3.9,5-8.7v0c0-4.8,2.2-8.7,5-8.7l25.2,0c2.8,0,5-3.9,5-8.7v-0.3c0-4.8-2.2-8.7-5-8.7l-61.7,0
		c-1.7-3.1-3.3-6.2-5-9.3c0-4.8-2.2-8.7-5-8.7l-25.7,0c-2.8,0-5-3.9-5-8.7v-0.8c0-4.8,2.2-8.7,5-8.7l88.5,0c2.8,0,5-3.9,5-8.7V89
		c0-4.8-2.2-8.7-5-8.7l-44.5,0c-2.8,0-5-3.9-5-8.7l0-0.8c0-4.8,2.2-8.7,5-8.7l31.4,0c2.8,0,5-3.9,5-8.7v-0.8c0-4.8-2.2-8.7-5-8.7
		l-65.9,0c-2.8,0-5-3.9-5-8.7l0-0.8c0-4.8,2.2-8.7,5-8.7l52.6,0c2.8,0,5-3.9,5-8.7v0c0-4.8,2.2-8.7,5-8.7c18.3,0,36.6,0,54.9,0
		L267.7,8.1z"/>
	<path id="XMLID_21_" class="st1" d="M394.5,8.1l0,578.2H273.8c-25.8,0-51.6,0-77.4,0c-0.3,0-2.1-0.1-3.6-2.6
		c-0.9-1.6-1.5-3.8-1.5-6.2v-0.8c0-4.8,2.2-8.7,5-8.7h14.2c2.8,0,5-3.9,5-8.7v-0.4c0-4.8-2.2-8.7-5-8.7h-61.7c-2.8,0-5-3.9-5-8.7
		l0-0.8c0-4.8,2.2-8.7,5-8.7l84,0c2.8,0,5-3.9,5-8.7v-0.8c0-4.8-2.2-8.7-5-8.7h-40c-2.8,0-5-3.9-5-8.7v-0.8c0-4.8,2.2-8.7,5-8.7H254
		c2.8,0,5-3.9,5-8.7l0-0.8c0-4.8-2.2-8.7-5-8.7h-95.5c-2.8,0-5-3.9-5-8.7v-0.8c0-4.8,2.2-8.7,5-8.7h52.6c2.8,0,5-3.9,5-8.7v0
		c0-4.8,2.2-8.7,5-8.7h25.2c2.8,0,5-3.9,5-8.7v-0.3c0-4.8-2.2-8.7-5-8.7h-61.7c-2.8,0-5-3.9-5-8.7v-0.6c0-4.8-2.2-8.7-5-8.7l-25.7,0
		c-2.8,0-5-3.9-5-8.7v-0.9c0-4.8,2.2-8.6,5-8.6h88.6c2.7,0,5-3.9,5-8.6v-1c0-4.8-2.2-8.6-5-8.6h-44.6c-2.7,0-5-3.9-5-8.6v-1
		c0-4.8,2.2-8.6,5-8.6h31.5c2.7,0,5-3.9,5-8.6v-1c0-4.8-2.2-8.6-5-8.6h-66c-2.7,0-5-3.9-5-8.6l0-1c0-4.8,2.2-8.6,5-8.6h102.5
		c2.7,0,5-3.9,5-8.6l0,0c0-4.8-2.2-8.6-5-8.6h-64.5c-2.7,0-5-3.9-5-8.6v-1c0-4.8,2.2-8.6,5-8.6H233c2.7,0,5-3.9,5-8.6v-0.6
		c0-4.8-2.2-8.6-5-8.6h-84.1c-2.7,0-5-3.9-5-8.6v-1c0-4.8,2.2-8.6,5-8.6l84.1,0c2.7,0,5-3.9,5-8.6v-1c0-4.8-2.2-8.6-5-8.6h-40.1
		c-2.7,0-5-3.9-5-8.6v-1c0-4.8,2.2-8.6,5-8.6l61.2,0c2.7,0,5-3.9,5-8.6v-0.9c0-4.8-2.2-8.7-5-8.7l-95.5,0c-2.8,0-5-3.9-5-8.7v-0.8
		c0-4.8,2.2-8.7,5-8.7l52.6,0c2.8,0,5-3.9,5-8.7v0c0-4.8,2.2-8.7,5-8.7h25.2c2.8,0,5-3.9,5-8.7v-0.3c0-4.8-2.2-8.7-5-8.7l-61.7,0
		c-1.7-3.1-3.3-6.2-5-9.3c0-4.8-2.2-8.7-5-8.7h-25.7c-2.8,0-5-3.9-5-8.7v-0.8c0-4.8,2.2-8.7,5-8.7l88.5,0c2.8,0,5-3.9,5-8.7V89
		c0-4.8-2.2-8.7-5-8.7l-44.5,0c-2.8,0-5-3.9-5-8.7v-0.8c0-4.8,2.2-8.7,5-8.7l31.4,0c2.8,0,5-3.9,5-8.7v-0.8c0-4.8-2.2-8.7-5-8.7
		l-65.9,0c-2.8,0-5-3.9-5-8.7v-0.8c0-4.8,2.2-8.7,5-8.7l52.6,0c2.8,0,5-3.9,5-8.7v0c0-4.8,2.2-8.7,5-8.7c18.3,0,36.6,0,54.9,0
		L394.5,8.1z"/>
	<path id="XMLID_20_" class="st2" d="M515.3,8.1l0,578.2H394.5c-25.8,0-51.6,0-77.4,0c-0.3,0-2.1-0.1-3.6-2.6
		c-0.9-1.6-1.5-3.8-1.5-6.2v-0.8c0-4.8,2.2-8.7,5-8.7h14.2c2.8,0,5-3.9,5-8.7v-0.4c0-4.8-2.2-8.7-5-8.7h-61.7c-2.8,0-5-3.9-5-8.7
		v-0.8c0-4.8,2.2-8.7,5-8.7l84,0c2.8,0,5-3.9,5-8.7v-0.8c0-4.8-2.2-8.7-5-8.7h-40c-2.8,0-5-3.9-5-8.7v-0.8c0-4.8,2.2-8.7,5-8.7
		l61.1,0c2.8,0,5-3.9,5-8.7v-0.8c0-4.8-2.2-8.7-5-8.7l-95.5,0c-2.8,0-5-3.9-5-8.7v-0.8c0-4.8,2.2-8.7,5-8.7h52.6c2.8,0,5-3.9,5-8.7
		v0c0-4.8,2.2-8.7,5-8.7h25.2c2.8,0,5-3.9,5-8.7v-0.3c0-4.8-2.2-8.7-5-8.7h-61.7c-2.8,0-5-3.9-5-8.7v-0.6c0-4.8-2.2-8.7-5-8.7
		l-25.7,0c-2.8,0-5-3.9-5-8.7v-0.9c0-4.8,2.2-8.6,5-8.6h88.6c2.7,0,5-3.9,5-8.6v-1c0-4.8-2.2-8.6-5-8.6l-44.6,0c-2.7,0-5-3.9-5-8.6
		v-1c0-4.8,2.2-8.6,5-8.6h31.5c2.7,0,5-3.9,5-8.6v-1c0-4.8-2.2-8.6-5-8.6l-66,0c-2.7,0-5-3.9-5-8.6v-1c0-4.8,2.2-8.6,5-8.6l102.5,0
		c2.7,0,5-3.9,5-8.6v0c0-4.8-2.2-8.6-5-8.6h-64.5c-2.7,0-5-3.9-5-8.6v-1c0-4.8,2.2-8.6,5-8.6h36.6c2.7,0,5-3.9,5-8.6v-0.6
		c0-4.8-2.2-8.6-5-8.6l-84.1,0c-2.7,0-5-3.9-5-8.6v-1c0-4.8,2.2-8.6,5-8.6l84.1,0c2.7,0,5-3.9,5-8.6v-1c0-4.8-2.2-8.6-5-8.6h-40.1
		c-2.7,0-5-3.9-5-8.6v-1c0-4.8,2.2-8.6,5-8.6l61.2,0c2.7,0,5-3.9,5-8.6v-0.9c0-4.8-2.2-8.7-5-8.7l-95.5,0c-2.8,0-5-3.9-5-8.7v-0.8
		c0-4.8,2.2-8.7,5-8.7h52.6c2.8,0,5-3.9,5-8.7v0c0-4.8,2.2-8.7,5-8.7h25.2c2.8,0,5-3.9,5-8.7v-0.3c0-4.8-2.2-8.7-5-8.7h-61.7
		c-1.7-3.1-3.3-6.2-5-9.3c0-4.8-2.2-8.7-5-8.7h-25.7c-2.8,0-5-3.9-5-8.7v-0.8c0-4.8,2.2-8.7,5-8.7l88.5,0c2.8,0,5-3.9,5-8.7V89
		c0-4.8-2.2-8.7-5-8.7h-44.5c-2.8,0-5-3.9-5-8.7v-0.8c0-4.8,2.2-8.7,5-8.7l31.4,0c2.8,0,5-3.9,5-8.7v-0.8c0-4.8-2.2-8.7-5-8.7
		l-65.9,0c-2.8,0-5-3.9-5-8.7v-0.8c0-4.8,2.2-8.7,5-8.7l52.6,0c2.8,0,5-3.9,5-8.7v0c0-4.8,2.2-8.7,5-8.7c18.3,0,36.6,0,54.9,0
		L515.3,8.1z"/>
	<path id="XMLID_23_" class="st3" d="M640.2,8.1l0,578.2H519.5c-25.8,0-51.6,0-77.4,0c-0.3,0-2.1-0.1-3.6-2.6
		c-0.9-1.6-1.5-3.8-1.5-6.2v-0.8c0-4.8,2.2-8.7,5-8.7h14.2c2.8,0,5-3.9,5-8.7v-0.4c0-4.8-2.2-8.7-5-8.7h-61.7c-2.8,0-5-3.9-5-8.7
		v-0.8c0-4.8,2.2-8.7,5-8.7h84c2.8,0,5-3.9,5-8.7v-0.8c0-4.8-2.2-8.7-5-8.7h-40c-2.8,0-5-3.9-5-8.7v-0.8c0-4.8,2.2-8.7,5-8.7l61.1,0
		c2.8,0,5-3.9,5-8.7v-0.8c0-4.8-2.2-8.7-5-8.7l-95.5,0c-2.8,0-5-3.9-5-8.7v-0.8c0-4.8,2.2-8.7,5-8.7h52.6c2.8,0,5-3.9,5-8.7v0
		c0-4.8,2.2-8.7,5-8.7H492c2.8,0,5-3.9,5-8.7v-0.3c0-4.8-2.2-8.7-5-8.7l-61.7,0c-2.8,0-5-3.9-5-8.7v-0.6c0-4.8-2.2-8.7-5-8.7
		l-25.7,0c-2.8,0-5-3.9-5-8.7v-0.9c0-4.8,2.2-8.6,5-8.6h88.6c2.7,0,5-3.9,5-8.6v-1c0-4.8-2.2-8.6-5-8.6h-44.6c-2.7,0-5-3.9-5-8.6v-1
		c0-4.8,2.2-8.6,5-8.6H470c2.7,0,5-3.9,5-8.6v-1c0-4.8-2.2-8.6-5-8.6h-66c-2.7,0-5-3.9-5-8.6v-1c0-4.8,2.2-8.6,5-8.6h102.5
		c2.7,0,5-3.9,5-8.6v0c0-4.8-2.2-8.6-5-8.6l-64.5,0c-2.7,0-5-3.9-5-8.6v-1c0-4.8,2.2-8.6,5-8.6l36.6,0c2.7,0,5-3.9,5-8.6v-0.6
		c0-4.8-2.2-8.6-5-8.6h-84.1c-2.7,0-5-3.9-5-8.6v-1c0-4.8,2.2-8.6,5-8.6l84.1,0c2.7,0,5-3.9,5-8.6v-1c0-4.8-2.2-8.6-5-8.6l-40.1,0
		c-2.7,0-5-3.9-5-8.6v-1c0-4.8,2.2-8.6,5-8.6l61.2,0c2.7,0,5-3.9,5-8.6v-0.9c0-4.8-2.2-8.7-5-8.7l-95.5,0c-2.8,0-5-3.9-5-8.7v-0.8
		c0-4.8,2.2-8.7,5-8.7l52.6,0c2.8,0,5-3.9,5-8.7v0c0-4.8,2.2-8.7,5-8.7H492c2.8,0,5-3.9,5-8.7v-0.3c0-4.8-2.2-8.7-5-8.7l-61.7,0
		c-1.7-3.1-3.3-6.2-5-9.3c0-4.8-2.2-8.7-5-8.7l-25.7,0c-2.8,0-5-3.9-5-8.7v-0.8c0-4.8,2.2-8.7,5-8.7l88.5,0c2.8,0,5-3.9,5-8.7V89
		c0-4.8-2.2-8.7-5-8.7l-44.5,0c-2.8,0-5-3.9-5-8.7v-0.8c0-4.8,2.2-8.7,5-8.7l31.4,0c2.8,0,5-3.9,5-8.7v-0.8c0-4.8-2.2-8.7-5-8.7
		l-65.9,0c-2.8,0-5-3.9-5-8.7v-0.8c0-4.8,2.2-8.7,5-8.7l52.6,0c2.8,0,5-3.9,5-8.7v0c0-4.8,2.2-8.7,5-8.7c18.3,0,36.6,0,54.9,0
		L640.2,8.1z"/>
	<path id="XMLID_22_" class="st3" d="M760.9,8.1l0,578.2l-120.8,0c-25.8,0-51.6,0-77.4,0c-0.3,0-2.1-0.1-3.6-2.6
		c-0.9-1.6-1.5-3.8-1.5-6.2v-0.8c0-4.8,2.2-8.7,5-8.7H577c2.8,0,5-3.9,5-8.7v-0.4c0-4.8-2.2-8.7-5-8.7h-61.7c-2.8,0-5-3.9-5-8.7
		v-0.8c0-4.8,2.2-8.7,5-8.7l84,0c2.8,0,5-3.9,5-8.7v-0.8c0-4.8-2.2-8.7-5-8.7h-40c-2.8,0-5-3.9-5-8.7v-0.8c0-4.8,2.2-8.7,5-8.7h61.1
		c2.8,0,5-3.9,5-8.7v-0.8c0-4.8-2.2-8.7-5-8.7l-95.5,0c-2.8,0-5-3.9-5-8.7v-0.8c0-4.8,2.2-8.7,5-8.7h52.6c2.8,0,5-3.9,5-8.7v0
		c0-4.8,2.2-8.7,5-8.7h25.2c2.8,0,5-3.9,5-8.7v-0.3c0-4.8-2.2-8.7-5-8.7H551c-2.8,0-5-3.9-5-8.7v-0.6c0-4.8-2.2-8.7-5-8.7l-25.7,0
		c-2.8,0-5-3.9-5-8.7v-0.9c0-4.8,2.2-8.6,5-8.6h88.6c2.7,0,5-3.9,5-8.6v-1c0-4.8-2.2-8.6-5-8.6l-44.6,0c-2.7,0-5-3.9-5-8.6v-1
		c0-4.8,2.2-8.6,5-8.6h31.5c2.7,0,5-3.9,5-8.6v-1c0-4.8-2.2-8.6-5-8.6h-66c-2.7,0-5-3.9-5-8.6v-1c0-4.8,2.2-8.6,5-8.6l102.5,0
		c2.7,0,5-3.9,5-8.6v0c0-4.8-2.2-8.6-5-8.6h-64.5c-2.7,0-5-3.9-5-8.6v-1c0-4.8,2.2-8.6,5-8.6h36.6c2.7,0,5-3.9,5-8.6v-0.6
		c0-4.8-2.2-8.6-5-8.6l-84.1,0c-2.7,0-5-3.9-5-8.6v-1c0-4.8,2.2-8.6,5-8.6l84.1,0c2.7,0,5-3.9,5-8.6v-1c0-4.8-2.2-8.6-5-8.6l-40.1,0
		c-2.7,0-5-3.9-5-8.6v-1c0-4.8,2.2-8.6,5-8.6l61.2,0c2.7,0,5-3.9,5-8.6v-0.9c0-4.8-2.2-8.7-5-8.7l-95.5,0c-2.8,0-5-3.9-5-8.7v-0.8
		c0-4.8,2.2-8.7,5-8.7l52.6,0c2.8,0,5-3.9,5-8.7v0c0-4.8,2.2-8.7,5-8.7l25.2,0c2.8,0,5-3.9,5-8.7v-0.3c0-4.8-2.2-8.7-5-8.7l-61.7,0
		c-1.7-3.1-3.3-6.2-5-9.3c0-4.8-2.2-8.7-5-8.7h-25.7c-2.8,0-5-3.9-5-8.7v-0.8c0-4.8,2.2-8.7,5-8.7l88.5,0c2.8,0,5-3.9,5-8.7V89
		c0-4.8-2.2-8.7-5-8.7l-44.5,0c-2.8,0-5-3.9-5-8.7v-0.8c0-4.8,2.2-8.7,5-8.7l31.4,0c2.8,0,5-3.9,5-8.7v-0.8c0-4.8-2.2-8.7-5-8.7
		l-65.9,0c-2.8,0-5-3.9-5-8.7v-0.8c0-4.8,2.2-8.7,5-8.7l52.6,0c2.8,0,5-3.9,5-8.7v0c0-4.8,2.2-8.7,5-8.7c18.3,0,36.6,0,54.9,0
		L760.9,8.1z"/>
</g>
</svg>
