<?xml version="1.0" encoding="utf-8"?>
<!-- Generator: Adobe Illustrator 19.0.0, SVG Export Plug-In . SVG Version: 6.00 Build 0)  -->
<svg version="1.1" id="Layer_1" xmlns="http://www.w3.org/2000/svg" xmlns:xlink="http://www.w3.org/1999/xlink" x="0px" y="0px"
	 viewBox="0 0 700 600" style="enable-background:new 0 0 700 600;" xml:space="preserve">
<style type="text/css">
	.st0{clip-path:url(#XMLID_3_);fill:#FFC000;}
	.st1{clip-path:url(#XMLID_3_);fill:#E98F00;}
	.st2{clip-path:url(#XMLID_3_);fill:#E36C00;}
</style>
<g id="XMLID_1_">
	<defs>
		<path id="XMLID_38_" d="M481.4,250.4c0.8-10.3-3.3-19.7,0.8-38.6c3.7-17,11.6-29.9,18-38.4c-5.1-4.4-13.4-11-24.9-16.3
			c-39.3-18.3-68.5-1.3-91.5-22.2c-1.8-1.6-14.9-13.9-12.4-26.5c2.7-12.7,20.7-22.6,45.4-23.1c40.8-0.8,70.8,18,74,20.4
			c20,15.5,28.8,34.9,32.7,44.9c2.8-1.8,5.6-3.5,8.5-5.3c-4.6-10.5-16.5-34-42.5-50.3c-20.5-13-40.5-15.6-48.8-16.7
			c-12-1.5-22.3-0.9-29.6-0.1c-0.2-3.5-0.5-13.5,6.4-20.8c3.7-4,9-6.5,17.2-7.2c56-5.1,85.8,25.3,85.8,25.3
			c23.3,23.9,25.8,53.7,26.1,62.3c3.3-0.9,8.1-2,13.9-2.5c19.6-1.6,34.8,5.1,42.6,8.8c23.2,10.7,37.3,30.9,65.7,71.5
			c7.1,10.2,11.8,17.5,10.5,26.6c-2.5,18-26,28.5-28.4,29.5c-7.4,3.2-13.5,4-16.7,4.4c-12.6,1.5-35,3.9-68.2,4.6
			c6,18.8,13.2,48.2,12.4,84.1c-1.6,70.1-32.7,119.7-11.1,139.5c11.7,10.6,27.2,2.3,44.9,18.1c11.9,10.6,16.6,24.7,18.7,34.7
			c-23.6,0-47.3,0-70.8,0c-1.2-6.8-7-34.7-32.8-54c-18-13.4-36.6-15.9-44.8-16.5c1.2-1.1,17.2-16.9,12.7-39.2
			c-3.6-18.4-18.7-27.3-20.9-28.6c-3.7,0.7-7.5,1.5-11.2,2.2c4.6,2.5,14.7,8.6,18.9,20.2c6.2,17.4-3.2,40.1-24.6,53.4
			c12.5-0.2,29.4,1.5,47.1,9.6c9.9,4.6,21.6,9.8,30.3,22.5c8.2,11.8,9.8,23.9,10.2,30.3H68.3c-25.9-8.5-33.8-21.7-36.5-28
			c-15.8-35.9,27.4-96,74.7-107.4C156,410,220,449.5,244.9,523.7c0.8-18.9,4.3-48.7,18.7-80.9c28.6-64.1,83.4-100.8,104.2-114.4
			C426.4,289.9,478.9,282.3,481.4,250.4z"/>
	</defs>
	<clipPath id="XMLID_3_">
		<use xlink:href="#XMLID_38_"  style="overflow:visible;"/>
	</clipPath>
	<path id="XMLID_44_" class="st0" d="M152.9,45.9l0,516.3H45.1c-23,0-46.1,0-69.1,0c-0.3,0-1.9-0.1-3.2-2.3
		c-0.8-1.4-1.3-3.4-1.3-5.5v-0.7c0-4.3,2-7.8,4.5-7.8h12.7c2.5,0,4.5-3.5,4.5-7.8v-0.4c0-4.3-2-7.8-4.5-7.8h-55.1
		c-2.5,0-4.5-3.5-4.5-7.8v-0.7c0-4.3,2-7.8,4.5-7.8l75,0c2.5,0,4.5-3.5,4.5-7.8v-0.7c0-4.3-2-7.8-4.5-7.8h-35.7
		c-2.5,0-4.5-3.5-4.5-7.8v-0.7c0-4.3,2-7.8,4.5-7.8h54.5c2.5,0,4.5-3.5,4.5-7.8l0-0.7c0-4.3-2-7.8-4.5-7.8l-85.3,0
		c-2.5,0-4.5-3.5-4.5-7.8v-0.7c0-4.3,2-7.8,4.5-7.8h47c2.5,0,4.5-3.5,4.5-7.8l0,0c0-4.3,2-7.8,4.5-7.8h22.5c2.5,0,4.5-3.5,4.5-7.8
		v-0.2c0-4.3-2-7.8-4.5-7.8h-55.1c-2.5,0-4.5-3.5-4.5-7.8v-0.5c0-4.3-2-7.8-4.5-7.8l-22.9,0c-2.5,0-4.5-3.5-4.5-7.8v-0.8
		c0-4.3,2-7.7,4.4-7.7l79.1,0c2.5,0,4.4-3.4,4.4-7.7v-0.9c0-4.3-2-7.7-4.4-7.7l-39.8,0c-2.5,0-4.4-3.4-4.4-7.7v-0.9
		c0-4.3,2-7.7,4.4-7.7H1c2.5,0,4.4-3.4,4.4-7.7v-0.9c0-4.3-2-7.7-4.4-7.7h-58.9c-2.5,0-4.4-3.4-4.4-7.7v-0.9c0-4.3,2-7.7,4.4-7.7
		h91.5c2.5,0,4.4-3.4,4.4-7.7v0c0-4.3-2-7.7-4.4-7.7H-24c-2.5,0-4.4-3.4-4.4-7.7v-0.9c0-4.3,2-7.7,4.4-7.7H8.7
		c2.5,0,4.4-3.4,4.4-7.7v-0.5c0-4.3-2-7.7-4.4-7.7h-75.1c-2.5,0-4.4-3.4-4.4-7.7v-0.9c0-4.3,2-7.7,4.4-7.7l75.1,0
		c2.5,0,4.4-3.4,4.4-7.7V247c0-4.3-2-7.7-4.4-7.7l-35.8,0c-2.5,0-4.4-3.4-4.4-7.7v-0.9c0-4.3,2-7.7,4.4-7.7l54.6,0
		c2.5,0,4.4-3.4,4.4-7.7v-0.8c0-4.3-2-7.8-4.5-7.8l-85.3,0c-2.5,0-4.5-3.5-4.5-7.8v-0.7c0-4.3,2-7.8,4.5-7.8h47
		c2.5,0,4.5-3.5,4.5-7.8v0c0-4.3,2-7.8,4.5-7.8l22.5,0c2.5,0,4.5-3.5,4.5-7.8v-0.2c0-4.3-2-7.8-4.5-7.8l-55.1,0
		c-1.5-2.8-3-5.5-4.5-8.3c0-4.3-2-7.8-4.5-7.8h-22.9c-2.5,0-4.5-3.5-4.5-7.8v-0.7c0-4.3,2-7.8,4.5-7.8l79,0c2.5,0,4.5-3.5,4.5-7.8
		v-0.7c0-4.3-2-7.8-4.5-7.8l-39.7,0c-2.5,0-4.5-3.5-4.5-7.8v-0.7c0-4.3,2-7.8,4.5-7.8l28,0c2.5,0,4.5-3.5,4.5-7.8v-0.7
		c0-4.3-2-7.8-4.5-7.8l-58.8,0c-2.5,0-4.5-3.5-4.5-7.8v-0.7c0-4.3,2-7.8,4.5-7.8l47,0c2.5,0,4.5-3.5,4.5-7.8v0c0-4.3,2-7.8,4.5-7.8
		c16.3,0,32.7,0,49,0L152.9,45.9z"/>
	<path id="XMLID_43_" class="st0" d="M260.7,45.9l0,516.3H152.9c-23,0-46.1,0-69.1,0c-0.3,0-1.9-0.1-3.2-2.3
		c-0.8-1.4-1.3-3.4-1.3-5.5v-0.7c0-4.3,2-7.8,4.5-7.8h12.7c2.5,0,4.5-3.5,4.5-7.8v-0.4c0-4.3-2-7.8-4.5-7.8H41.4
		c-2.5,0-4.5-3.5-4.5-7.8v-0.7c0-4.3,2-7.8,4.5-7.8l75,0c2.5,0,4.5-3.5,4.5-7.8v-0.7c0-4.3-2-7.8-4.5-7.8H80.7
		c-2.5,0-4.5-3.5-4.5-7.8v-0.7c0-4.3,2-7.8,4.5-7.8h54.5c2.5,0,4.5-3.5,4.5-7.8v-0.7c0-4.3-2-7.8-4.5-7.8l-85.3,0
		c-2.5,0-4.5-3.5-4.5-7.8v-0.7c0-4.3,2-7.8,4.5-7.8h47c2.5,0,4.5-3.5,4.5-7.8l0,0c0-4.3,2-7.8,4.5-7.8h22.5c2.5,0,4.5-3.5,4.5-7.8
		v-0.2c0-4.3-2-7.8-4.5-7.8l-55.1,0c-2.5,0-4.5-3.5-4.5-7.8v-0.5c0-4.3-2-7.8-4.5-7.8l-22.9,0c-2.5,0-4.5-3.5-4.5-7.8v-0.8
		c0-4.3,2-7.7,4.4-7.7l79.1,0c2.5,0,4.4-3.4,4.4-7.7v-0.9c0-4.3-2-7.7-4.4-7.7H80.6c-2.5,0-4.4-3.4-4.4-7.7v-0.9
		c0-4.3,2-7.7,4.4-7.7h28.1c2.5,0,4.4-3.4,4.4-7.7v-0.9c0-4.3-2-7.7-4.4-7.7H49.9c-2.5,0-4.4-3.4-4.4-7.7v-0.9c0-4.3,2-7.7,4.4-7.7
		l91.5,0c2.5,0,4.4-3.4,4.4-7.7l0,0c0-4.3-2-7.7-4.4-7.7H83.8c-2.5,0-4.4-3.4-4.4-7.7v-0.9c0-4.3,2-7.7,4.4-7.7h32.7
		c2.5,0,4.4-3.4,4.4-7.7v-0.5c0-4.3-2-7.7-4.4-7.7H41.3c-2.5,0-4.4-3.4-4.4-7.7v-0.9c0-4.3,2-7.7,4.4-7.7l75.1,0
		c2.5,0,4.4-3.4,4.4-7.7V247c0-4.3-2-7.7-4.4-7.7H80.6c-2.5,0-4.4-3.4-4.4-7.7v-0.9c0-4.3,2-7.7,4.4-7.7l54.6,0
		c2.5,0,4.4-3.4,4.4-7.7v-0.8c0-4.3-2-7.8-4.5-7.8l-85.3,0c-2.5,0-4.5-3.5-4.5-7.8v-0.7c0-4.3,2-7.8,4.5-7.8h47
		c2.5,0,4.5-3.5,4.5-7.8v0c0-4.3,2-7.8,4.5-7.8l22.5,0c2.5,0,4.5-3.5,4.5-7.8v-0.2c0-4.3-2-7.8-4.5-7.8l-55.1,0
		c-1.5-2.8-3-5.5-4.5-8.3c0-4.3-2-7.8-4.5-7.8l-22.9,0c-2.5,0-4.5-3.5-4.5-7.8v-0.7c0-4.3,2-7.8,4.5-7.8l79,0c2.5,0,4.5-3.5,4.5-7.8
		v-0.7c0-4.3-2-7.8-4.5-7.8l-39.7,0c-2.5,0-4.5-3.5-4.5-7.8v-0.7c0-4.3,2-7.8,4.5-7.8l28,0c2.5,0,4.5-3.5,4.5-7.8v-0.7
		c0-4.3-2-7.8-4.5-7.8l-58.8,0c-2.5,0-4.5-3.5-4.5-7.8v-0.7c0-4.3,2-7.8,4.5-7.8l47,0c2.5,0,4.5-3.5,4.5-7.8v0c0-4.3,2-7.8,4.5-7.8
		c16.3,0,32.7,0,49,0L260.7,45.9z"/>
	<path id="XMLID_42_" class="st0" d="M373.9,45.9l0,516.3H266.1c-23,0-46.1,0-69.1,0c-0.3,0-1.9-0.1-3.2-2.3
		c-0.8-1.4-1.3-3.4-1.3-5.5v-0.7c0-4.3,2-7.8,4.5-7.8h12.7c2.5,0,4.5-3.5,4.5-7.8v-0.4c0-4.3-2-7.8-4.5-7.8h-55.1
		c-2.5,0-4.5-3.5-4.5-7.8v-0.7c0-4.3,2-7.8,4.5-7.8h75c2.5,0,4.5-3.5,4.5-7.8v-0.7c0-4.3-2-7.8-4.5-7.8h-35.7
		c-2.5,0-4.5-3.5-4.5-7.8v-0.7c0-4.3,2-7.8,4.5-7.8h54.5c2.5,0,4.5-3.5,4.5-7.8v-0.7c0-4.3-2-7.8-4.5-7.8l-85.3,0
		c-2.5,0-4.5-3.5-4.5-7.8v-0.7c0-4.3,2-7.8,4.5-7.8l47,0c2.5,0,4.5-3.5,4.5-7.8v0c0-4.3,2-7.8,4.5-7.8h22.5c2.5,0,4.5-3.5,4.5-7.8
		v-0.2c0-4.3-2-7.8-4.5-7.8h-55.1c-2.5,0-4.5-3.5-4.5-7.8v-0.5c0-4.3-2-7.8-4.5-7.8h-22.9c-2.5,0-4.5-3.5-4.5-7.8v-0.8
		c0-4.3,2-7.7,4.4-7.7h79.1c2.5,0,4.4-3.4,4.4-7.7v-0.9c0-4.3-2-7.7-4.4-7.7h-39.8c-2.5,0-4.4-3.4-4.4-7.7v-0.9c0-4.3,2-7.7,4.4-7.7
		H222c2.5,0,4.4-3.4,4.4-7.7v-0.9c0-4.3-2-7.7-4.4-7.7l-58.9,0c-2.5,0-4.4-3.4-4.4-7.7v-0.9c0-4.3,2-7.7,4.4-7.7l91.5,0
		c2.5,0,4.4-3.4,4.4-7.7l0,0c0-4.3-2-7.7-4.4-7.7H197c-2.5,0-4.4-3.4-4.4-7.7v-0.9c0-4.3,2-7.7,4.4-7.7h32.7c2.5,0,4.4-3.4,4.4-7.7
		v-0.5c0-4.3-2-7.7-4.4-7.7l-75.1,0c-2.5,0-4.4-3.4-4.4-7.7v-0.9c0-4.3,2-7.7,4.4-7.7l75.1,0c2.5,0,4.4-3.4,4.4-7.7V247
		c0-4.3-2-7.7-4.4-7.7l-35.8,0c-2.5,0-4.4-3.4-4.4-7.7v-0.9c0-4.3,2-7.7,4.4-7.7l54.6,0c2.5,0,4.4-3.4,4.4-7.7v-0.8
		c0-4.3-2-7.8-4.5-7.8l-85.3,0c-2.5,0-4.5-3.5-4.5-7.8v-0.7c0-4.3,2-7.8,4.5-7.8l47,0c2.5,0,4.5-3.5,4.5-7.8v0c0-4.3,2-7.8,4.5-7.8
		l22.5,0c2.5,0,4.5-3.5,4.5-7.8v-0.2c0-4.3-2-7.8-4.5-7.8l-55.1,0c-1.5-2.8-3-5.5-4.5-8.3c0-4.3-2-7.8-4.5-7.8h-22.9
		c-2.5,0-4.5-3.5-4.5-7.8v-0.7c0-4.3,2-7.8,4.5-7.8l79,0c2.5,0,4.5-3.5,4.5-7.8v-0.7c0-4.3-2-7.8-4.5-7.8l-39.7,0
		c-2.5,0-4.5-3.5-4.5-7.8v-0.7c0-4.3,2-7.8,4.5-7.8l28,0c2.5,0,4.5-3.5,4.5-7.8v-0.7c0-4.3-2-7.8-4.5-7.8l-58.8,0
		c-2.5,0-4.5-3.5-4.5-7.8v-0.7c0-4.3,2-7.8,4.5-7.8l47,0c2.5,0,4.5-3.5,4.5-7.8v0c0-4.3,2-7.8,4.5-7.8c16.3,0,32.7,0,49,0
		L373.9,45.9z"/>
	<path id="XMLID_41_" class="st0" d="M481.7,45.9l0,516.3H373.9c-23,0-46.1,0-69.1,0c-0.3,0-1.9-0.1-3.2-2.3
		c-0.8-1.4-1.3-3.4-1.3-5.5v-0.7c0-4.3,2-7.8,4.5-7.8h12.7c2.5,0,4.5-3.5,4.5-7.8v-0.4c0-4.3-2-7.8-4.5-7.8h-55.1
		c-2.5,0-4.5-3.5-4.5-7.8v-0.7c0-4.3,2-7.8,4.5-7.8l75,0c2.5,0,4.5-3.5,4.5-7.8v-0.7c0-4.3-2-7.8-4.5-7.8h-35.7
		c-2.5,0-4.5-3.5-4.5-7.8v-0.7c0-4.3,2-7.8,4.5-7.8h54.5c2.5,0,4.5-3.5,4.5-7.8v-0.7c0-4.3-2-7.8-4.5-7.8l-85.3,0
		c-2.5,0-4.5-3.5-4.5-7.8v-0.7c0-4.3,2-7.8,4.5-7.8h47c2.5,0,4.5-3.5,4.5-7.8v0c0-4.3,2-7.8,4.5-7.8h22.5c2.5,0,4.5-3.5,4.5-7.8
		v-0.2c0-4.3-2-7.8-4.5-7.8h-55.1c-2.5,0-4.5-3.5-4.5-7.8v-0.5c0-4.3-2-7.8-4.5-7.8l-22.9,0c-2.5,0-4.5-3.5-4.5-7.8v-0.8
		c0-4.3,2-7.7,4.4-7.7l79.1,0c2.5,0,4.4-3.4,4.4-7.7v-0.9c0-4.3-2-7.7-4.4-7.7l-39.8,0c-2.5,0-4.4-3.4-4.4-7.7v-0.9
		c0-4.3,2-7.7,4.4-7.7h28.1c2.5,0,4.4-3.4,4.4-7.7v-0.9c0-4.3-2-7.7-4.4-7.7h-58.9c-2.5,0-4.4-3.4-4.4-7.7v-0.9c0-4.3,2-7.7,4.4-7.7
		l91.5,0c2.5,0,4.4-3.4,4.4-7.7v0c0-4.3-2-7.7-4.4-7.7h-57.6c-2.5,0-4.4-3.4-4.4-7.7v-0.9c0-4.3,2-7.7,4.4-7.7l32.7,0
		c2.5,0,4.4-3.4,4.4-7.7v-0.5c0-4.3-2-7.7-4.4-7.7l-75.1,0c-2.5,0-4.4-3.4-4.4-7.7v-0.9c0-4.3,2-7.7,4.4-7.7l75.1,0
		c2.5,0,4.4-3.4,4.4-7.7V247c0-4.3-2-7.7-4.4-7.7h-35.8c-2.5,0-4.4-3.4-4.4-7.7v-0.9c0-4.3,2-7.7,4.4-7.7l54.6,0
		c2.5,0,4.4-3.4,4.4-7.7v-0.8c0-4.3-2-7.8-4.5-7.8l-85.3,0c-2.5,0-4.5-3.5-4.5-7.8v-0.7c0-4.3,2-7.8,4.5-7.8l47,0
		c2.5,0,4.5-3.5,4.5-7.8v0c0-4.3,2-7.8,4.5-7.8h22.5c2.5,0,4.5-3.5,4.5-7.8v-0.2c0-4.3-2-7.8-4.5-7.8l-55.1,0
		c-1.5-2.8-3-5.5-4.5-8.3c0-4.3-2-7.8-4.5-7.8h-22.9c-2.5,0-4.5-3.5-4.5-7.8v-0.7c0-4.3,2-7.8,4.5-7.8l79,0c2.5,0,4.5-3.5,4.5-7.8
		v-0.7c0-4.3-2-7.8-4.5-7.8l-39.7,0c-2.5,0-4.5-3.5-4.5-7.8v-0.7c0-4.3,2-7.8,4.5-7.8l28,0c2.5,0,4.5-3.5,4.5-7.8v-0.7
		c0-4.3-2-7.8-4.5-7.8l-58.8,0c-2.5,0-4.5-3.5-4.5-7.8v-0.7c0-4.3,2-7.8,4.5-7.8l47,0c2.5,0,4.5-3.5,4.5-7.8v0c0-4.3,2-7.8,4.5-7.8
		c16.3,0,32.7,0,49,0H481.7z"/>
	<path id="XMLID_40_" class="st1" d="M593.3,45.9l0,516.3H485.5c-23,0-46.1,0-69.1,0c-0.3,0-1.9-0.1-3.2-2.3
		c-0.8-1.4-1.3-3.4-1.3-5.5v-0.7c0-4.3,2-7.8,4.5-7.8H429c2.5,0,4.5-3.5,4.5-7.8v-0.4c0-4.3-2-7.8-4.5-7.8h-55.1
		c-2.5,0-4.5-3.5-4.5-7.8v-0.7c0-4.3,2-7.8,4.5-7.8h75c2.5,0,4.5-3.5,4.5-7.8v-0.7c0-4.3-2-7.8-4.5-7.8h-35.7
		c-2.5,0-4.5-3.5-4.5-7.8v-0.7c0-4.3,2-7.8,4.5-7.8l54.5,0c2.5,0,4.5-3.5,4.5-7.8v-0.7c0-4.3-2-7.8-4.5-7.8l-85.3,0
		c-2.5,0-4.5-3.5-4.5-7.8v-0.7c0-4.3,2-7.8,4.5-7.8h47c2.5,0,4.5-3.5,4.5-7.8v0c0-4.3,2-7.8,4.5-7.8h22.5c2.5,0,4.5-3.5,4.5-7.8
		v-0.2c0-4.3-2-7.8-4.5-7.8h-55.1c-2.5,0-4.5-3.5-4.5-7.8v-0.5c0-4.3-2-7.8-4.5-7.8h-22.9c-2.5,0-4.5-3.5-4.5-7.8v-0.8
		c0-4.3,2-7.7,4.4-7.7H453c2.5,0,4.4-3.4,4.4-7.7v-0.9c0-4.3-2-7.7-4.4-7.7h-39.8c-2.5,0-4.4-3.4-4.4-7.7v-0.9c0-4.3,2-7.7,4.4-7.7
		h28.1c2.5,0,4.4-3.4,4.4-7.7v-0.9c0-4.3-2-7.7-4.4-7.7h-58.9c-2.5,0-4.4-3.4-4.4-7.7v-0.9c0-4.3,2-7.7,4.4-7.7h91.5
		c2.5,0,4.4-3.4,4.4-7.7l0,0c0-4.3-2-7.7-4.4-7.7l-57.6,0c-2.5,0-4.4-3.4-4.4-7.7l0-0.9c0-4.3,2-7.7,4.4-7.7H449
		c2.5,0,4.4-3.4,4.4-7.7v-0.5c0-4.3-2-7.7-4.4-7.7h-75.1c-2.5,0-4.4-3.4-4.4-7.7v-0.9c0-4.3,2-7.7,4.4-7.7l75.1,0
		c2.5,0,4.4-3.4,4.4-7.7V247c0-4.3-2-7.7-4.4-7.7l-35.8,0c-2.5,0-4.4-3.4-4.4-7.7v-0.9c0-4.3,2-7.7,4.4-7.7l54.6,0
		c2.5,0,4.4-3.4,4.4-7.7v-0.8c0-4.3-2-7.8-4.5-7.8l-85.3,0c-2.5,0-4.5-3.5-4.5-7.8v-0.7c0-4.3,2-7.8,4.5-7.8l47,0
		c2.5,0,4.5-3.5,4.5-7.8v0c0-4.3,2-7.8,4.5-7.8h22.5c2.5,0,4.5-3.5,4.5-7.8v-0.2c0-4.3-2-7.8-4.5-7.8l-55.1,0
		c-1.5-2.8-3-5.5-4.5-8.3c0-4.3-2-7.8-4.5-7.8h-22.9c-2.5,0-4.5-3.5-4.5-7.8v-0.7c0-4.3,2-7.8,4.5-7.8l79,0c2.5,0,4.5-3.5,4.5-7.8
		v-0.7c0-4.3-2-7.8-4.5-7.8l-39.7,0c-2.5,0-4.5-3.5-4.5-7.8v-0.7c0-4.3,2-7.8,4.5-7.8l28,0c2.5,0,4.5-3.5,4.5-7.8v-0.7
		c0-4.3-2-7.8-4.5-7.8l-58.8,0c-2.5,0-4.5-3.5-4.5-7.8v-0.7c0-4.3,2-7.8,4.5-7.8l47,0c2.5,0,4.5-3.5,4.5-7.8v0c0-4.3,2-7.8,4.5-7.8
		c16.3,0,32.7,0,49,0L593.3,45.9z"/>
	<path id="XMLID_39_" class="st2" d="M731.7,45.9l0,516.3H593.3c-23,0-46.1,0-69.1,0c-0.3,0-1.9-0.1-3.2-2.3
		c-0.8-1.4-1.3-3.4-1.3-5.5v-0.7c0-4.3,2-7.8,4.5-7.8h12.7c2.5,0,4.5-3.5,4.5-7.8v-0.4c0-4.3-2-7.8-4.5-7.8h-55.1
		c-2.5,0-4.5-3.5-4.5-7.8v-0.7c0-4.3,2-7.8,4.5-7.8h75c2.5,0,4.5-3.5,4.5-7.8v-0.7c0-4.3-2-7.8-4.5-7.8h-35.7
		c-2.5,0-4.5-3.5-4.5-7.8v-0.7c0-4.3,2-7.8,4.5-7.8h54.5c2.5,0,4.5-3.5,4.5-7.8v-0.7c0-4.3-2-7.8-4.5-7.8l-85.3,0
		c-2.5,0-4.5-3.5-4.5-7.8v-0.7c0-4.3,2-7.8,4.5-7.8h47c2.5,0,4.5-3.5,4.5-7.8v0c0-4.3,2-7.8,4.5-7.8h22.5c2.5,0,4.5-3.5,4.5-7.8
		v-0.2c0-4.3-2-7.8-4.5-7.8h-55.1c-2.5,0-4.5-3.5-4.5-7.8v-0.5c0-4.3-2-7.8-4.5-7.8l-22.9,0c-2.5,0-4.5-3.5-4.5-7.8v-0.8
		c0-4.3,2-7.7,4.4-7.7h79.1c2.5,0,4.4-3.4,4.4-7.7v-0.9c0-4.3-2-7.7-4.4-7.7l-39.8,0c-2.5,0-4.4-3.4-4.4-7.7v-0.9
		c0-4.3,2-7.7,4.4-7.7h28.1c2.5,0,4.4-3.4,4.4-7.7v-0.9c0-4.3-2-7.7-4.4-7.7h-58.9c-2.5,0-4.4-3.4-4.4-7.7v-0.9c0-4.3,2-7.7,4.4-7.7
		l91.5,0c2.5,0,4.4-3.4,4.4-7.7v0c0-4.3-2-7.7-4.4-7.7h-57.6c-2.5,0-4.4-3.4-4.4-7.7v-0.9c0-4.3,2-7.7,4.4-7.7l32.7,0
		c2.5,0,4.4-3.4,4.4-7.7v-0.5c0-4.3-2-7.7-4.4-7.7h-75.1c-2.5,0-4.4-3.4-4.4-7.7v-0.9c0-4.3,2-7.7,4.4-7.7l75.1,0
		c2.5,0,4.4-3.4,4.4-7.7V247c0-4.3-2-7.7-4.4-7.7H521c-2.5,0-4.4-3.4-4.4-7.7v-0.9c0-4.3,2-7.7,4.4-7.7l54.6,0
		c2.5,0,4.4-3.4,4.4-7.7v-0.8c0-4.3-2-7.8-4.5-7.8l-85.3,0c-2.5,0-4.5-3.5-4.5-7.8v-0.7c0-4.3,2-7.8,4.5-7.8l47,0
		c2.5,0,4.5-3.5,4.5-7.8v0c0-4.3,2-7.8,4.5-7.8h22.5c2.5,0,4.5-3.5,4.5-7.8v-0.2c0-4.3-2-7.8-4.5-7.8l-55.1,0
		c-1.5-2.8-3-5.5-4.5-8.3c0-4.3-2-7.8-4.5-7.8l-22.9,0c-2.5,0-4.5-3.5-4.5-7.8v-0.7c0-4.3,2-7.8,4.5-7.8l79,0c2.5,0,4.5-3.5,4.5-7.8
		v-0.7c0-4.3-2-7.8-4.5-7.8l-39.7,0c-2.5,0-4.5-3.5-4.5-7.8v-0.7c0-4.3,2-7.8,4.5-7.8l28,0c2.5,0,4.5-3.5,4.5-7.8v-0.7
		c0-4.3-2-7.8-4.5-7.8l-58.8,0c-2.5,0-4.5-3.5-4.5-7.8v-0.7c0-4.3,2-7.8,4.5-7.8l47,0c2.5,0,4.5-3.5,4.5-7.8v0c0-4.3,2-7.8,4.5-7.8
		c16.3,0,32.7,0,49,0L731.7,45.9z"/>
</g>
</svg>
