<?xml version="1.0" encoding="utf-8"?>
<!-- Generator: Adobe Illustrator 19.0.0, SVG Export Plug-In . SVG Version: 6.00 Build 0)  -->
<svg version="1.1" id="Capa_1" xmlns="http://www.w3.org/2000/svg" xmlns:xlink="http://www.w3.org/1999/xlink" x="0px" y="0px"
	 viewBox="-256 348.8 97.2 97.2" style="enable-background:new -256 348.8 97.2 97.2;" xml:space="preserve">
<style type="text/css">
	.st0{fill:#808080;}
</style>
<g>
	<g>
		<path class="st0" d="M-207.4,348.8c-26.8,0-48.6,21.8-48.6,48.6c0,26.8,21.8,48.6,48.6,48.6s48.6-21.8,48.6-48.6
			C-158.8,370.6-180.6,348.8-207.4,348.8z M-207.4,435.7c-21.1,0-38.2-17.2-38.2-38.2c0-21.1,17.2-38.2,38.2-38.2
			s38.2,17.2,38.2,38.2C-169.2,418.5-186.3,435.7-207.4,435.7z"/>
		<path class="st0" d="M-182.1,395.9h-21.8v-26.3c0-2.2-1.8-4-4-4c-2.2,0-4,1.8-4,4v30.3c0,2.2,1.8,4,4,4h25.8c2.2,0,4-1.8,4-4
			C-178.1,397.7-179.9,395.9-182.1,395.9z"/>
	</g>
</g>
</svg>
